<svg xmlns="http://www.w3.org/2000/svg" xmlns:xlink="http://www.w3.org/1999/xlink" xmlns:lucid="lucid" width="1360" height="620"><g transform="translate(-220 2520)" lucid:page-tab-id="gnaiy_f44_qu"><path d="M0-2592h1760v1360H0z" fill="#fff"/><path d="M240-2438a30 30 0 0 1 30-30h1260a30 30 0 0 1 30 30v488a30 30 0 0 1-30 30H270a30 30 0 0 1-30-30z" stroke="#474747" fill-opacity="0"/><path d="M348-2465.6v3.54c0 6.42-7.1 13.05-15.76 13.05h-46.48c-8.66 0-15.75-6.64-15.75-13.06v-3.54z" fill="#9d5125"/><path d="M300.03-2500c8.03 0 14.82 4.4 18.17 11.67 4.6-3.14 10.92-1.98 14.04 2.65 1.17 1.64 1.7 3.32 1.8 5.3 7.87.68 13.95 8.25 13.95 14.27v1.3c0 6.45-7.1 13-15.76 13h-46.5c-8.64 0-15.74-6.55-15.74-13v-1.3c0-5.02 4.2-11.87 10.06-13.56v-.57c.08-10.95 8.97-19.82 19.97-19.77z" fill="#f58535"/><path d="M289.54-2476.87l-5.2 18.2h3.04l1.17-4.43h5.38l1.1 4.43h3.05l-4.8-18.2zm-.47 11.4l2.22-8.98 2.1 8.97zM311.2-2462.66h-.03l-2.47-14.2h-3.1l-2.4 14.13h-.06l-2.4-14.14h-2.95l3.53 18.2h3.38l2.35-13.7h.06l2.36 13.7h3.4l3.64-18.2h-2.9l-2.4 14.2zM325.9-2468.6l-1.98-.72c-1.93-.7-2.74-1.53-2.74-3.1-.17-1.26.74-2.43 2-2.6.16-.02.3-.02.45-.02 1.26-.17 2.4.72 2.58 1.96.04.25.03.44 0 .68v.38h2.93v-.4c0-1.9-.5-4.8-5.18-4.8-3.44 0-5.7 1.84-5.7 5.16 0 2.6 1.1 3.97 3.82 5l2 .68c1.6.23 2.73 1.6 2.64 3.2.04 1.45-1.08 2.64-2.5 2.68h-.28c-2 0-3-1.12-3-3.33v-.47h-2.9v.44c0 2.54 1.02 5.53 5.52 5.53 3.7 0 6.07-1.6 6.07-5.48.04-2.5-1.1-3.9-3.7-4.8z" fill="#fff"/><use xlink:href="#a" transform="matrix(1,0,0,1,240,-1950) translate(615.875 12.799999999999999)"/><use xlink:href="#b" transform="matrix(1,0,0,1,240,-1950) translate(661.175 12.799999999999999)"/><path d="M350.5-2150h120v120h-120v-120z" stroke="#fff" stroke-opacity="0" stroke-width="2" fill="#3f8624"/><path d="M448.8-2085.94c-.47-2.48-3.3-4.25-5.3-5.53-.62-.4-2.3-1.04-2.46-1.6 0-.4 0-.8.16-1.2l1.6-11.46 1.4-10.17c.37-3.05-1.1-5.13-3.62-6.9-5.13-3.6-11.88-5.04-17.94-6-7.97-1.28-14.95-1.52-23-.72-7.28.48-13.34 1.92-20.08 4.8-3.38 1.6-7.9 4.1-7.3 8.42 1.55 12.97 3.46 25.95 5.23 38.93.75 5.93 1.6 11.86 2.36 17.8.3 2.47 1.7 4.4 4 5.35 4.9 2.65 11.03 3.45 16.63 3.93 7.73.73 14.32.5 22-.95 4.6-.8 13.18-2.25 13.94-8 .92-7.14 1.92-14.27 2.84-21.4l.38-2.17c2.6.64 10.05 2 9.13-3.12zm-40.65-40.86c9.66 0 20.63 1.12 29.2 5.85 1.4.72 4.46 2.32 3.54 4.33-.93 1.92-3.84 2.88-5.6 3.6-2.6.96-5 1.6-7.75 2.16-11.96 2.4-22.54 2.65-34.65.73-5.45-.57-9.97-1.93-14.88-4.33-1.15-.72-3.06-1.84-2.53-3.45.38-.9 1-1.53 1.83-2 3.76-2.4 7.2-3.85 11.58-4.66 6.6-1.6 12.43-2.32 19.25-2.24zm25.15 67.46c-.3 1.84-3.37 2.8-4.83 3.28-3.22 1.12-6.06 1.76-9.43 2.16-7.44.97-13.88.97-21.4 0-4.67-.4-8.58-1.44-12.8-3.52-1.14-.48-1.83-1.52-1.9-2.72-1.62-12.74-3.38-25.4-5.15-38.06l-1.85-13.78c3.84 2.1 7.36 3.37 11.66 4.1 4.68.95 8.6 1.43 13.35 1.75 9.2.64 17.1.24 26.22-1.44 4.83-.72 8.8-2.08 13.1-4.4l-3.37 25.07c-8.58-2.8-15.64-5.6-23.7-9.54-.37-.16-.68-.32-.98-.48-.46-.32-.3-.16-.54-.64-.38-.96-.46-1.6-1.3-2.4-.77-.56-1.6-.8-2.53-.72-2 .08-3.53 1.84-3.38 3.84.16 1.93 1.92 3.45 3.9 3.3.55-.1 1-.25 1.62-.5.6-.15.6-.15 1.22.17 8.2 4 15.33 6.97 24 9.85 1.22.4 1.22 0 1.22 1.04-.07.8-.15 1.53-.3 2.33l-1 7.6zm-24.7-37.9c0 .48-.6.4-.75.16-.23-.32.76-.72.76-.16zm31.52 11.22l.46-3.53c1.6.97 4.3 2.33 5.06 4.1-1.6.63-4.06-.17-5.52-.57z" stroke="#fff" stroke-opacity="0" stroke-width="2" fill="#fff"/><use xlink:href="#c" transform="matrix(1,0,0,1,320.5,-2021) translate(59.525 14.4)"/><path d="M849.5-2150h120v120h-120v-120z" stroke="#fff" stroke-opacity="0" stroke-width="2" fill="#3b48cc"/><path d="M929.9-2085.22l-10.6 10.55c2-.56 3.65-1.2 5.5-2.24 1.1.63 1.68 1.67 1.9 2.87 0 2.96-6.2 6.16-15.4 7.44-3.05.4-5.55.56-8.6.56h-1.58c-12.95-.24-22.42-4.3-22.42-8 .17-1.2.82-2.15 1.9-2.87 5 2.8 13.18 4.47 22.1 4.47h.17l.92-3.2h-1.1c-8.8 0-16.98-1.76-21.28-4.47-1.74-1.12-2.72-2.4-2.72-3.44v-7.44c4.9 3.76 14.64 5.68 24 5.68 1.25 0 2.5 0 3.76-.08l.92-3.2c-1.63.08-3.1.16-4.68.16-13.7 0-24-4.23-24-8 .17-1.27.82-2.23 1.9-2.87 4.42 2.5 11.22 4 18.9 4.4l.1-3.2c-7.56-.4-14.42-2-18.18-4.47-1.74-1.04-2.66-2.3-2.72-3.43v-7.36c4.9 3.76 14.64 5.68 24 5.68h.33l1.74-3.2h-2.07c-13.7 0-24-4.16-24-8 0-3.75 10.3-8 24-8 4.85 0 8.98.5 13.72 1.6h8.8c-4.83-2.95-13.1-4.78-22.52-4.78-13.17 0-27.2 3.9-27.2 11.2v12.86c.1 1.92.92 3.5 2.44 4.7-1.52 1.3-2.34 2.9-2.45 4.8v12.8c.1 2 .92 3.6 2.44 4.87-1.52 1.2-2.34 2.8-2.45 4.8V-2060.93c.43 7.05 14.2 10.8 27.2 10.8s26.78-3.75 27.2-10.87V-2074.12c-.04-1.9-.9-3.6-2.44-4.78 1.53-1.2 2.34-2.88 2.45-4.8zm-3.2 23.98c0 3.76-10.28 8-24 8-13.7 0-24-4.16-24-8v-7.35c4.9 3.68 14.64 5.68 24 5.68s19.1-2 24-5.67z" stroke="#fff" stroke-opacity="0" stroke-width="2" fill="#fff"/><path d="M885.5-2105.97c0 1.1-.9 2-2 2s-2-.9-2-2 .9-2 2-2 2 .9 2 2zM885.5-2083.57c0 1.1-.9 2-2 2s-2-.9-2-2 .9-2 2-2 2 .9 2 2zM885.5-2061.17c0 1.1-.9 2-2 2s-2-.9-2-2 .9-2 2-2 2 .9 2 2zM906.7-2067.63c-.3 0-.53-.06-.8-.22-.66-.38-.94-1.14-.74-1.85l8.98-29.95h-9.06c-.88.06-1.6-.65-1.6-1.58 0-.27.04-.54.2-.76l9.58-19.2c.28-.56.8-.88 1.45-.88h20.8c.9-.06 1.62.65 1.66 1.52.04.22 0 .38-.04.6L933-2107.7h8.97c.88.05 1.6.76 1.6 1.63 0 .43-.16.76-.44 1.1l-35.2 36.8c-.32.37-.72.54-1.24.54zm1-35.18h8.6c.53 0 .97.2 1.3.6.27.43.4.92.23 1.4l-7.7 25.6 28.03-29.24h-7.46c-.88 0-1.64-.65-1.68-1.52 0-.22 0-.44.08-.6l4.1-12.3h-17.6z" stroke="#fff" stroke-opacity="0" stroke-width="2" fill="#fff"/><use xlink:href="#d" transform="matrix(1,0,0,1,819.5,-2021) translate(8.599999999999994 14.4)"/><use xlink:href="#e" transform="matrix(1,0,0,1,819.5,-2021) translate(79.55 14.4)"/><path d="M600-2150h120v120H600v-120z" stroke="#fff" stroke-opacity="0" stroke-width="2" fill="#3f8624"/><path d="M698.3-2085.94c-.47-2.48-3.3-4.25-5.3-5.53-.62-.4-2.3-1.04-2.46-1.6 0-.4 0-.8.16-1.2l1.6-11.46 1.4-10.17c.37-3.05-1.1-5.13-3.62-6.9-5.13-3.6-11.88-5.04-17.94-6-7.97-1.28-14.95-1.52-23-.72-7.28.48-13.34 1.92-20.08 4.8-3.38 1.6-7.9 4.1-7.3 8.42 1.55 12.97 3.46 25.95 5.23 38.93.75 5.93 1.6 11.86 2.36 17.8.3 2.47 1.7 4.4 4 5.35 4.9 2.65 11.03 3.45 16.63 3.93 7.73.73 14.32.5 22-.95 4.6-.8 13.18-2.25 13.94-8 .92-7.14 1.92-14.27 2.84-21.4l.38-2.17c2.6.64 10.05 2 9.13-3.12zm-40.65-40.86c9.66 0 20.63 1.12 29.2 5.85 1.4.72 4.46 2.32 3.54 4.33-.93 1.92-3.84 2.88-5.6 3.6-2.6.96-5 1.6-7.75 2.16-11.96 2.4-22.54 2.65-34.65.73-5.45-.57-9.97-1.93-14.88-4.33-1.15-.72-3.06-1.84-2.53-3.45.38-.9 1-1.53 1.83-2 3.76-2.4 7.2-3.85 11.58-4.66 6.6-1.6 12.43-2.32 19.25-2.24zm25.15 67.46c-.3 1.84-3.37 2.8-4.83 3.28-3.22 1.12-6.06 1.76-9.43 2.16-7.44.97-13.88.97-21.4 0-4.67-.4-8.58-1.44-12.8-3.52-1.14-.48-1.83-1.52-1.9-2.72-1.62-12.74-3.38-25.4-5.15-38.06l-1.85-13.78c3.84 2.1 7.36 3.37 11.66 4.1 4.68.95 8.6 1.43 13.35 1.75 9.2.64 17.1.24 26.22-1.44 4.83-.72 8.8-2.08 13.1-4.4l-3.37 25.07c-8.58-2.8-15.64-5.6-23.7-9.54-.37-.16-.68-.32-.98-.48-.46-.32-.3-.16-.54-.64-.38-.96-.46-1.6-1.3-2.4-.77-.56-1.6-.8-2.53-.72-2 .08-3.53 1.84-3.38 3.84.16 1.93 1.92 3.45 3.9 3.3.55-.1 1-.25 1.62-.5.6-.15.6-.15 1.22.17 8.2 4 15.33 6.97 24 9.85 1.22.4 1.22 0 1.22 1.04-.07.8-.15 1.53-.3 2.33l-1 7.6zm-24.7-37.9c0 .48-.6.4-.75.16-.23-.32.76-.72.76-.16zm31.52 11.22l.46-3.53c1.6.97 4.3 2.33 5.06 4.1-1.6.63-4.06-.17-5.52-.57z" stroke="#fff" stroke-opacity="0" stroke-width="2" fill="#fff"/><use xlink:href="#f" transform="matrix(1,0,0,1,570,-2021) translate(44.55 14.4)"/><path d="M1099-2111.12v56.28l49.5 24.84 49.5-24.84v-14.04l-42.08-5.28v-31.68l42.08-5.28v-14.04l-49.5-24.84-49.5 24.84v14.04z" fill="#876929"/><path d="M1099.02-2068.92l49.47 14.9v24l-49.48-24.8v-14.1z" fill="#876929"/><path d="M1105.3-2051.68l-6.3-3.15v-70.36l6.33-3.13-.02 76.65z" fill="#876929"/><path d="M1155.92-2074.15l-50.6 7.13V-2113l50.6 7.17v31.68zM1198-2111.08l-49.5-14.95V-2150l49.5 24.87v14.05zM1197.97-2068.9l-49.47 14.9v24l49.47-24.86v-14.04z" fill="#d9a741"/><path d="M1130.26-2077.14l18.23 2.28v-30.43l-18.24 2.32v25.84zM1111.9-2079.4l11.83 1.46v-24.18l-11.83 1.5v21.2z" fill="#876929"/><path d="M1105.33-2113l43.18-13 49.5 14.9-42.08 5.25-50.6-7.16z" fill="#624a1e"/><path d="M1105.3-2067.02l43.18 13.02 49.48-14.9-42.06-5.26-50.6 7.14z" fill="#fad791"/><path d="M1197.97-2081.12l-49.47 6.26v-30.43l49.47 6.34v17.84z" fill="#d9a741"/><use xlink:href="#g" transform="matrix(1,0,0,1,1099,-2030) translate(30.5 14.4)"/><path d="M1373.84-2041.46l-12.4-3.46-11.72-13.33 13.08 1.08 11.04 15.7z" fill="#b8852e"/><path d="M1373.85-2041.46l8.86-18.54-8.27-1.16-11.64 4 11.05 15.7z" fill="#d9a741"/><path d="M1345.18-2050.24l-6.97-1.96-7.66-8.74 8.15 1.28 6.48 9.42z" fill="#b8852e"/><path d="M1345.17-2050.24l5-10.44-4.66-.66-6.82 1.67 6.5 9.43z" fill="#d9a741"/><path d="M1327.5-2060.68l7.14 1.47 34.86-30.3-34.86-33.87-7.14 3.6v59.1z" fill="#876929"/><path d="M1362.14-2117.4v55.63l-27.52 2.56v-64.17l27.52 5.97z" fill="#d9a741"/><path d="M1343.4-2057.32l12.23 2.46 33.7-39-33.7-40.1-12.22 6.16v70.48z" fill="#876929"/><path d="M1425.35-2111.9v48.1l-69.72 8.94v-79.1l69.72 22.06z" fill="#d9a741"/><path d="M1412.72-2030l-17.6-4.93-16.66-18.96 18.57 1.56 15.7 22.33z" fill="#b8852e"/><path d="M1412.72-2030l12.62-26.34-11.8-1.68-16.5 5.7 15.68 22.3z" fill="#d9a741"/><path d="M1369.5-2052.23l17.95 3.44 24.37-50.6-24.37-50.6-17.95 9.1v88.67z" fill="#876929"/><path d="M1387.46-2048.8l60.03-11.93v-59.3l-60.04-29.97v101.2z" fill="#d9a741"/><use xlink:href="#h" transform="matrix(1,0,0,1,1327.5,-2030) translate(41.525 14.4)"/><path d="M461.95-2164.36h-23.92c-.7 0-1.27-.58-1.27-1.3v-20.4c0-.7.58-1.28 1.27-1.28h23.95c.7 0 1.27.57 1.27 1.28v20.4c0 .72-.58 1.3-1.27 1.3h-.03zm-22.65-2.55h21.38v-17.9H439.3z" stroke="#fff" stroke-opacity="0" fill="#e81313"/><path d="M455.9-2186.05v-5.17-.04c-.15-3.12-2.77-5.55-5.9-5.42-3.1-.1-5.74 2.28-5.9 5.4v5.2h-2.55v-5.2c.15-4.53 3.93-8.08 8.46-7.95 4.52-.1 8.28 3.5 8.4 8.02v5.1zM450-2173.62c-2.32 0-4.2-1.88-4.2-4.2 0-2.32 1.88-4.2 4.2-4.2 2.3 0 4.2 1.87 4.2 4.18v.02c0 2.3-1.86 4.2-4.17 4.2H450zm0-5.85c-.9 0-1.65.74-1.65 1.65 0 .9.74 1.65 1.65 1.65h.03c.9 0 1.62-.75 1.62-1.65 0-.45-.16-.85-.5-1.16-.3-.33-.7-.5-1.15-.5z" stroke="#fff" stroke-opacity="0" fill="#e81313"/><path d="M448.72-2175.2h2.56v5.97h-2.56v-5.98z" stroke="#fff" stroke-opacity="0" fill="#e81313"/><path d="M450-2150c-.3 0-.54-.06-.78-.24-4.2-3.06-8.34-4.92-13.44-6-9.9-1.8-15.78-7.14-15.78-14.4.12-3.72 1.14-6.78 3.18-9.84 1.26-2.22 2.4-4.14 2.4-6.78-.12-3.66-1.56-6.72-4.32-9.12-.3-.24-.42-.54-.48-.9 0-.36.06-.66.3-.9 0-.12 7.02-8.58 8.64-10.74.42-.6 1.2-.72 1.8-.3l.18.18c2.28 2.7 5.22 4.2 8.76 4.38 3.36 0 5.94-1.5 8.52-4.86.42-.54 1.26-.66 1.8-.24l.24.24c2.52 3.36 5.16 4.86 8.52 4.86 3.54-.18 6.48-1.68 8.76-4.38.3-.3.66-.42 1.02-.42.42.06.72.24.96.54 1.62 2.16 8.58 10.62 8.64 10.74.24.24.3.54.3.9-.06.36-.18.66-.48.9-2.76 2.4-4.2 5.46-4.32 9.12 0 2.64 1.08 4.56 2.4 6.78 2.04 3.06 3.06 6.12 3.18 9.84 0 7.26-5.88 12.6-15.78 14.4-5.1 1.08-9.24 2.94-13.44 6-.24.18-.48.24-.78.24zm-26.22-47.52c2.82 2.88 4.26 6.24 4.38 10.2-.18 3.06-1.02 5.58-2.76 8.1-1.44 2.52-2.82 4.86-2.82 8.52 0 8.76 10.44 11.34 13.62 11.94 5.22 1.08 9.42 2.88 13.8 5.94 4.38-3.06 8.58-4.86 13.8-5.94 3.18-.6 13.62-3.12 13.62-11.88 0-3.66-1.38-6.06-2.82-8.58-1.74-2.46-2.58-5.04-2.76-8.04.12-4.02 1.56-7.38 4.38-10.2-1.62-1.92-5.22-6.3-7.08-8.76-2.64 2.64-5.82 3.96-9.6 4.08-3.84.06-7.14-1.56-9.54-4.56-2.4 3-5.7 4.56-9.54 4.56-3.78-.12-6.96-1.44-9.6-4.08-1.86 2.46-5.46 6.84-7.08 8.7z" stroke="#fff" stroke-opacity="0" fill="#e81313"/><path d="M870.4-2362.5l-10.96-1.65v-16l14.8 4.14-3.85 13.5z" fill="#759c3e"/><path d="M871.15-2360.43l-21.65 1.95v-16.68l9.94-4.98 11.7 19.7zM927.62-2362.5l10.95-1.65v-16l-14.82 4.14 3.87 13.5z" fill="#4b612c"/><path d="M926.84-2360.43l21.65 1.95v-16.68l-9.93-4.98-11.73 19.7z" fill="#759c3e"/><path d="M878.06-2389.56l-11.34 23.28-17.22 5.16v14.88l19.95 43.08L899-2280l20.5-25.8v-72L899-2400l-20.94 10.44z" fill="#4b612c"/><path d="M948.5-2346.25v-14.87l-17.23-5.16-11.33-23.28L899-2400v120l29.5-23.17 20-43.08z" fill="#759c3e"/><use xlink:href="#a" transform="matrix(1,0,0,1,849.5,-2280) translate(7.375 14.4)"/><use xlink:href="#i" transform="matrix(1,0,0,1,849.5,-2280) translate(52.675 14.4)"/><path d="M410.5-2151v-179h445.52" stroke="#000" stroke-width="2" fill="none"/><path d="M411.5-2150h-2v-1.03h2zM857.48-2329H856v-2h.56z" stroke="#000" stroke-width=".05"/><path d="M660-2151v-179h196.02" stroke="#000" stroke-width="2" fill="none"/><path d="M661-2150h-2v-1.03h2zM857.48-2329H856v-2h.56z" stroke="#000" stroke-width=".05"/><path d="M1148.5-2151v-179H941.96" stroke="#000" stroke-width="2" fill="none"/><path d="M1149.5-2149.5l-1-.5 1 .5v2.5h-1v-3l-1 .5v-1.53h2zM941.98-2329h-1.5l.94-2h.56z" stroke="#000" stroke-width=".05"/><path d="M1387.5-2150.98V-2330H941.96" stroke="#000" stroke-width="2" fill="none"/><path d="M1388.5-2149.48l-1.04-.52v.04-.04l-.96.48v-1.5h2zM941.98-2329h-1.5l.94-2h.56z" stroke="#000" stroke-width=".05"/><path d="M909.5-2151v-39H800v-140h56.02" stroke="#000" stroke-width="2" fill="none"/><path d="M910.5-2150h-2v-1.03h2zM857.48-2329H856v-2h.56z" stroke="#000" stroke-width=".05"/><path d="M721.95-2164.36h-23.92c-.7 0-1.27-.58-1.27-1.3v-20.4c0-.7.58-1.28 1.27-1.28h23.95c.7 0 1.27.57 1.27 1.28v20.4c0 .72-.58 1.3-1.27 1.3h-.03zm-22.65-2.55h21.38v-17.9H699.3z" stroke="#fff" stroke-opacity="0" fill="#e81313"/><path d="M715.9-2186.05v-5.17-.04c-.15-3.12-2.77-5.55-5.9-5.42-3.1-.1-5.74 2.28-5.9 5.4v5.2h-2.55v-5.2c.15-4.53 3.93-8.08 8.46-7.95 4.52-.1 8.28 3.5 8.4 8.02v5.1zM710-2173.62c-2.32 0-4.2-1.88-4.2-4.2 0-2.32 1.88-4.2 4.2-4.2 2.3 0 4.2 1.87 4.2 4.18v.02c0 2.3-1.86 4.2-4.17 4.2H710zm0-5.85c-.9 0-1.65.74-1.65 1.65 0 .9.74 1.65 1.65 1.65h.03c.9 0 1.62-.75 1.62-1.65 0-.45-.16-.85-.5-1.16-.3-.33-.7-.5-1.15-.5z" stroke="#fff" stroke-opacity="0" fill="#e81313"/><path d="M708.72-2175.2h2.56v5.97h-2.56v-5.98z" stroke="#fff" stroke-opacity="0" fill="#e81313"/><path d="M710-2150c-.3 0-.54-.06-.78-.24-4.2-3.06-8.34-4.92-13.44-6-9.9-1.8-15.78-7.14-15.78-14.4.12-3.72 1.14-6.78 3.18-9.84 1.26-2.22 2.4-4.14 2.4-6.78-.12-3.66-1.56-6.72-4.32-9.12-.3-.24-.42-.54-.48-.9 0-.36.06-.66.3-.9 0-.12 7.02-8.58 8.64-10.74.42-.6 1.2-.72 1.8-.3l.18.18c2.28 2.7 5.22 4.2 8.76 4.38 3.36 0 5.94-1.5 8.52-4.86.42-.54 1.26-.66 1.8-.24l.24.24c2.52 3.36 5.16 4.86 8.52 4.86 3.54-.18 6.48-1.68 8.76-4.38.3-.3.66-.42 1.02-.42.42.06.72.24.96.54 1.62 2.16 8.58 10.62 8.64 10.74.24.24.3.54.3.9-.06.36-.18.66-.48.9-2.76 2.4-4.2 5.46-4.32 9.12 0 2.64 1.08 4.56 2.4 6.78 2.04 3.06 3.06 6.12 3.18 9.84 0 7.26-5.88 12.6-15.78 14.4-5.1 1.08-9.24 2.94-13.44 6-.24.18-.48.24-.78.24zm-26.22-47.52c2.82 2.88 4.26 6.24 4.38 10.2-.18 3.06-1.02 5.58-2.76 8.1-1.44 2.52-2.82 4.86-2.82 8.52 0 8.76 10.44 11.34 13.62 11.94 5.22 1.08 9.42 2.88 13.8 5.94 4.38-3.06 8.58-4.86 13.8-5.94 3.18-.6 13.62-3.12 13.62-11.88 0-3.66-1.38-6.06-2.82-8.58-1.74-2.46-2.58-5.04-2.76-8.04.12-4.02 1.56-7.38 4.38-10.2-1.62-1.92-5.22-6.3-7.08-8.76-2.64 2.64-5.82 3.96-9.6 4.08-3.84.06-7.14-1.56-9.54-4.56-2.4 3-5.7 4.56-9.54 4.56-3.78-.12-6.96-1.44-9.6-4.08-1.86 2.46-5.46 6.84-7.08 8.7zM1201.95-2164.36h-23.92c-.7 0-1.27-.58-1.27-1.3v-20.4c0-.7.58-1.28 1.27-1.28h23.95c.7 0 1.27.57 1.27 1.28v20.4c0 .72-.58 1.3-1.27 1.3h-.03zm-22.65-2.55h21.38v-17.9h-21.38z" stroke="#fff" stroke-opacity="0" fill="#e81313"/><path d="M1195.9-2186.05v-5.17-.04c-.15-3.12-2.77-5.55-5.9-5.42-3.1-.1-5.74 2.28-5.9 5.4v5.2h-2.55v-5.2c.15-4.53 3.93-8.08 8.46-7.95 4.52-.1 8.28 3.5 8.4 8.02v5.1zM1190-2173.62c-2.32 0-4.2-1.88-4.2-4.2 0-2.32 1.88-4.2 4.2-4.2 2.3 0 4.2 1.87 4.2 4.18v.02c0 2.3-1.86 4.2-4.17 4.2h-.03zm0-5.85c-.9 0-1.65.74-1.65 1.65 0 .9.74 1.65 1.65 1.65h.03c.9 0 1.62-.75 1.62-1.65 0-.45-.16-.85-.5-1.16-.3-.33-.7-.5-1.15-.5z" stroke="#fff" stroke-opacity="0" fill="#e81313"/><path d="M1188.72-2175.2h2.56v5.97h-2.56v-5.98z" stroke="#fff" stroke-opacity="0" fill="#e81313"/><path d="M1190-2150c-.3 0-.54-.06-.78-.24-4.2-3.06-8.34-4.92-13.44-6-9.9-1.8-15.78-7.14-15.78-14.4.12-3.72 1.14-6.78 3.18-9.84 1.26-2.22 2.4-4.14 2.4-6.78-.12-3.66-1.56-6.72-4.32-9.12-.3-.24-.42-.54-.48-.9 0-.36.06-.66.3-.9 0-.12 7.02-8.58 8.64-10.74.42-.6 1.2-.72 1.8-.3l.18.18c2.28 2.7 5.22 4.2 8.76 4.38 3.36 0 5.94-1.5 8.52-4.86.42-.54 1.26-.66 1.8-.24l.24.24c2.52 3.36 5.16 4.86 8.52 4.86 3.54-.18 6.48-1.68 8.76-4.38.3-.3.66-.42 1.02-.42.42.06.72.24.96.54 1.62 2.16 8.58 10.62 8.64 10.74.24.24.3.54.3.9-.06.36-.18.66-.48.9-2.76 2.4-4.2 5.46-4.32 9.12 0 2.64 1.08 4.56 2.4 6.78 2.04 3.06 3.06 6.12 3.18 9.84 0 7.26-5.88 12.6-15.78 14.4-5.1 1.08-9.24 2.94-13.44 6-.24.18-.48.24-.78.24zm-26.22-47.52c2.82 2.88 4.26 6.24 4.38 10.2-.18 3.06-1.02 5.58-2.76 8.1-1.44 2.52-2.82 4.86-2.82 8.52 0 8.76 10.44 11.34 13.62 11.94 5.22 1.08 9.42 2.88 13.8 5.94 4.38-3.06 8.58-4.86 13.8-5.94 3.18-.6 13.62-3.12 13.62-11.88 0-3.66-1.38-6.06-2.82-8.58-1.74-2.46-2.58-5.04-2.76-8.04.12-4.02 1.56-7.38 4.38-10.2-1.62-1.92-5.22-6.3-7.08-8.76-2.64 2.64-5.82 3.96-9.6 4.08-3.84.06-7.14-1.56-9.54-4.56-2.4 3-5.7 4.56-9.54 4.56-3.78-.12-6.96-1.44-9.6-4.08-1.86 2.46-5.46 6.84-7.08 8.7zM1441.95-2164.36h-23.92c-.7 0-1.27-.58-1.27-1.3v-20.4c0-.7.58-1.28 1.27-1.28h23.95c.7 0 1.27.57 1.27 1.28v20.4c0 .72-.58 1.3-1.27 1.3h-.03zm-22.65-2.55h21.38v-17.9h-21.38z" stroke="#fff" stroke-opacity="0" fill="#e81313"/><path d="M1435.9-2186.05v-5.17-.04c-.15-3.12-2.77-5.55-5.9-5.42-3.1-.1-5.74 2.28-5.9 5.4v5.2h-2.55v-5.2c.15-4.53 3.93-8.08 8.46-7.95 4.52-.1 8.28 3.5 8.4 8.02v5.1zM1430-2173.62c-2.32 0-4.2-1.88-4.2-4.2 0-2.32 1.88-4.2 4.2-4.2 2.3 0 4.2 1.87 4.2 4.18v.02c0 2.3-1.86 4.2-4.17 4.2h-.03zm0-5.85c-.9 0-1.65.74-1.65 1.65 0 .9.74 1.65 1.65 1.65h.03c.9 0 1.62-.75 1.62-1.65 0-.45-.16-.85-.5-1.16-.3-.33-.7-.5-1.15-.5z" stroke="#fff" stroke-opacity="0" fill="#e81313"/><path d="M1428.72-2175.2h2.56v5.97h-2.56v-5.98z" stroke="#fff" stroke-opacity="0" fill="#e81313"/><path d="M1430-2150c-.3 0-.54-.06-.78-.24-4.2-3.06-8.34-4.92-13.44-6-9.9-1.8-15.78-7.14-15.78-14.4.12-3.72 1.14-6.78 3.18-9.84 1.26-2.22 2.4-4.14 2.4-6.78-.12-3.66-1.56-6.72-4.32-9.12-.3-.24-.42-.54-.48-.9 0-.36.06-.66.3-.9 0-.12 7.02-8.58 8.64-10.74.42-.6 1.2-.72 1.8-.3l.18.18c2.28 2.7 5.22 4.2 8.76 4.38 3.36 0 5.94-1.5 8.52-4.86.42-.54 1.26-.66 1.8-.24l.24.24c2.52 3.36 5.16 4.86 8.52 4.86 3.54-.18 6.48-1.68 8.76-4.38.3-.3.66-.42 1.02-.42.42.06.72.24.96.54 1.62 2.16 8.58 10.62 8.64 10.74.24.24.3.54.3.9-.06.36-.18.66-.48.9-2.76 2.4-4.2 5.46-4.32 9.12 0 2.64 1.08 4.56 2.4 6.78 2.04 3.06 3.06 6.12 3.18 9.84 0 7.26-5.88 12.6-15.78 14.4-5.1 1.08-9.24 2.94-13.44 6-.24.18-.48.24-.78.24zm-26.22-47.52c2.82 2.88 4.26 6.24 4.38 10.2-.18 3.06-1.02 5.58-2.76 8.1-1.44 2.52-2.82 4.86-2.82 8.52 0 8.76 10.44 11.34 13.62 11.94 5.22 1.08 9.42 2.88 13.8 5.94 4.38-3.06 8.58-4.86 13.8-5.94 3.18-.6 13.62-3.12 13.62-11.88 0-3.66-1.38-6.06-2.82-8.58-1.74-2.46-2.58-5.04-2.76-8.04.12-4.02 1.56-7.38 4.38-10.2-1.62-1.92-5.22-6.3-7.08-8.76-2.64 2.64-5.82 3.96-9.6 4.08-3.84.06-7.14-1.56-9.54-4.56-2.4 3-5.7 4.56-9.54 4.56-3.78-.12-6.96-1.44-9.6-4.08-1.86 2.46-5.46 6.84-7.08 8.7zM961.95-2164.36h-23.92c-.7 0-1.27-.58-1.27-1.3v-20.4c0-.7.58-1.28 1.27-1.28h23.95c.7 0 1.27.57 1.27 1.28v20.4c0 .72-.58 1.3-1.27 1.3h-.03zm-22.65-2.55h21.38v-17.9H939.3z" stroke="#fff" stroke-opacity="0" fill="#e81313"/><path d="M955.9-2186.05v-5.17-.04c-.15-3.12-2.77-5.55-5.9-5.42-3.1-.1-5.74 2.28-5.9 5.4v5.2h-2.55v-5.2c.15-4.53 3.93-8.08 8.46-7.95 4.52-.1 8.28 3.5 8.4 8.02v5.1zM950-2173.62c-2.32 0-4.2-1.88-4.2-4.2 0-2.32 1.88-4.2 4.2-4.2 2.3 0 4.2 1.87 4.2 4.18v.02c0 2.3-1.86 4.2-4.17 4.2H950zm0-5.85c-.9 0-1.65.74-1.65 1.65 0 .9.74 1.65 1.65 1.65h.03c.9 0 1.62-.75 1.62-1.65 0-.45-.16-.85-.5-1.16-.3-.33-.7-.5-1.15-.5z" stroke="#fff" stroke-opacity="0" fill="#e81313"/><path d="M948.72-2175.2h2.56v5.97h-2.56v-5.98z" stroke="#fff" stroke-opacity="0" fill="#e81313"/><path d="M950-2150c-.3 0-.54-.06-.78-.24-4.2-3.06-8.34-4.92-13.44-6-9.9-1.8-15.78-7.14-15.78-14.4.12-3.72 1.14-6.78 3.18-9.84 1.26-2.22 2.4-4.14 2.4-6.78-.12-3.66-1.56-6.72-4.32-9.12-.3-.24-.42-.54-.48-.9 0-.36.06-.66.3-.9 0-.12 7.02-8.58 8.64-10.74.42-.6 1.2-.72 1.8-.3l.18.18c2.28 2.7 5.22 4.2 8.76 4.38 3.36 0 5.94-1.5 8.52-4.86.42-.54 1.26-.66 1.8-.24l.24.24c2.52 3.36 5.16 4.86 8.52 4.86 3.54-.18 6.48-1.68 8.76-4.38.3-.3.66-.42 1.02-.42.42.06.72.24.96.54 1.62 2.16 8.58 10.62 8.64 10.74.24.24.3.54.3.9-.06.36-.18.66-.48.9-2.76 2.4-4.2 5.46-4.32 9.12 0 2.64 1.08 4.56 2.4 6.78 2.04 3.06 3.06 6.12 3.18 9.84 0 7.26-5.88 12.6-15.78 14.4-5.1 1.08-9.24 2.94-13.44 6-.24.18-.48.24-.78.24zm-26.22-47.52c2.82 2.88 4.26 6.24 4.38 10.2-.18 3.06-1.02 5.58-2.76 8.1-1.44 2.52-2.82 4.86-2.82 8.52 0 8.76 10.44 11.34 13.62 11.94 5.22 1.08 9.42 2.88 13.8 5.94 4.38-3.06 8.58-4.86 13.8-5.94 3.18-.6 13.62-3.12 13.62-11.88 0-3.66-1.38-6.06-2.82-8.58-1.74-2.46-2.58-5.04-2.76-8.04.12-4.02 1.56-7.38 4.38-10.2-1.62-1.92-5.22-6.3-7.08-8.76-2.64 2.64-5.82 3.96-9.6 4.08-3.84.06-7.14-1.56-9.54-4.56-2.4 3-5.7 4.56-9.54 4.56-3.78-.12-6.96-1.44-9.6-4.08-1.86 2.46-5.46 6.84-7.08 8.7z" stroke="#fff" stroke-opacity="0" fill="#e81313"/><defs><path d="M205 0l-28-72H64L36 0H1l101-248h38L239 0h-34zm-38-99l-47-123c-12 45-31 82-46 123h93" id="j"/><path d="M266 0h-40l-56-210L115 0H75L2-248h35L96-30l15-64 43-154h32l59 218 59-218h35" id="k"/><path d="M185-189c-5-48-123-54-124 2 14 75 158 14 163 119 3 78-121 87-175 55-17-10-28-26-33-46l33-7c5 56 141 63 141-1 0-78-155-14-162-118-5-82 145-84 179-34 5 7 8 16 11 25" id="l"/><g id="a"><use transform="matrix(0.05,0,0,0.05,0,0)" xlink:href="#j"/><use transform="matrix(0.05,0,0,0.05,11.35,0)" xlink:href="#k"/><use transform="matrix(0.05,0,0,0.05,28.299999999999997,0)" xlink:href="#l"/></g><path d="M96-169c-40 0-48 33-48 73s9 75 48 75c24 0 41-14 43-38l32 2c-6 37-31 61-74 61-59 0-76-41-82-99-10-93 101-131 147-64 4 7 5 14 7 22l-32 3c-4-21-16-35-41-35" id="m"/><path d="M24 0v-261h32V0H24" id="n"/><path d="M100-194c62-1 85 37 85 99 1 63-27 99-86 99S16-35 15-95c0-66 28-99 85-99zM99-20c44 1 53-31 53-75 0-43-8-75-51-75s-53 32-53 75 10 74 51 75" id="o"/><path d="M84 4C-5 8 30-112 23-190h32v120c0 31 7 50 39 49 72-2 45-101 50-169h31l1 190h-30c-1-10 1-25-2-33-11 22-28 36-60 37" id="p"/><path d="M85-194c31 0 48 13 60 33l-1-100h32l1 261h-30c-2-10 0-23-3-31C134-8 116 4 85 4 32 4 16-35 15-94c0-66 23-100 70-100zm9 24c-40 0-46 34-46 75 0 40 6 74 45 74 42 0 51-32 51-76 0-42-9-74-50-73" id="q"/><g id="b"><use transform="matrix(0.05,0,0,0.05,0,0)" xlink:href="#m"/><use transform="matrix(0.05,0,0,0.05,9,0)" xlink:href="#n"/><use transform="matrix(0.05,0,0,0.05,12.949999999999998,0)" xlink:href="#o"/><use transform="matrix(0.05,0,0,0.05,22.95,0)" xlink:href="#p"/><use transform="matrix(0.05,0,0,0.05,32.95,0)" xlink:href="#q"/></g><path d="M59-47c-2 24 18 29 38 22v24C64 9 27 4 27-40v-127H5v-23h24l9-43h21v43h35v23H59v120" id="r"/><path d="M141-36C126-15 110 5 73 4 37 3 15-17 15-53c-1-64 63-63 125-63 3-35-9-54-41-54-24 1-41 7-42 31l-33-3c5-37 33-52 76-52 45 0 72 20 72 64v82c-1 20 7 32 28 27v20c-31 9-61-2-59-35zM48-53c0 20 12 33 32 33 41-3 63-29 60-74-43 2-92-5-92 41" id="s"/><path d="M177-190C167-65 218 103 67 71c-23-6-38-20-44-43l32-5c15 47 100 32 89-28v-30C133-14 115 1 83 1 29 1 15-40 15-95c0-56 16-97 71-98 29-1 48 16 59 35 1-10 0-23 2-32h30zM94-22c36 0 50-32 50-73 0-42-14-75-50-75-39 0-46 34-46 75s6 73 46 73" id="t"/><path d="M24-231v-30h32v30H24zM24 0v-190h32V0H24" id="u"/><path d="M117-194c89-4 53 116 60 194h-32v-121c0-31-8-49-39-48C34-167 62-67 57 0H25l-1-190h30c1 10-1 24 2 32 11-22 29-35 61-36" id="v"/><g id="c"><use transform="matrix(0.05,0,0,0.05,0,0)" xlink:href="#l"/><use transform="matrix(0.05,0,0,0.05,12,0)" xlink:href="#r"/><use transform="matrix(0.05,0,0,0.05,17,0)" xlink:href="#s"/><use transform="matrix(0.05,0,0,0.05,27,0)" xlink:href="#t"/><use transform="matrix(0.05,0,0,0.05,37,0)" xlink:href="#u"/><use transform="matrix(0.05,0,0,0.05,40.95,0)" xlink:href="#v"/><use transform="matrix(0.05,0,0,0.05,50.95,0)" xlink:href="#t"/></g><path d="M210-169c-67 3-38 105-44 169h-31v-121c0-29-5-50-35-48C34-165 62-65 56 0H25l-1-190h30c1 10-1 24 2 32 10-44 99-50 107 0 11-21 27-35 58-36 85-2 47 119 55 194h-31v-121c0-29-5-49-35-48" id="w"/><path d="M9 0v-24l116-142H16v-24h144v24L44-24h123V0H9" id="x"/><g id="d"><use transform="matrix(0.05,0,0,0.05,0,0)" xlink:href="#j"/><use transform="matrix(0.05,0,0,0.05,12,0)" xlink:href="#w"/><use transform="matrix(0.05,0,0,0.05,26.950000000000003,0)" xlink:href="#s"/><use transform="matrix(0.05,0,0,0.05,36.95,0)" xlink:href="#x"/><use transform="matrix(0.05,0,0,0.05,45.95,0)" xlink:href="#o"/><use transform="matrix(0.05,0,0,0.05,55.95,0)" xlink:href="#v"/></g><path d="M30-248c118-7 216 8 213 122C240-48 200 0 122 0H30v-248zM63-27c89 8 146-16 146-99s-60-101-146-95v194" id="y"/><path d="M179-190L93 31C79 59 56 82 12 73V49c39 6 53-20 64-50L1-190h34L92-34l54-156h33" id="z"/><path d="M160-131c35 5 61 23 61 61C221 17 115-2 30 0v-248c76 3 177-17 177 60 0 33-19 50-47 57zm-97-11c50-1 110 9 110-42 0-47-63-36-110-37v79zm0 115c55-2 124 14 124-45 0-56-70-42-124-44v89" id="A"/><g id="e"><use transform="matrix(0.05,0,0,0.05,0,0)" xlink:href="#y"/><use transform="matrix(0.05,0,0,0.05,12.950000000000001,0)" xlink:href="#z"/><use transform="matrix(0.05,0,0,0.05,21.950000000000003,0)" xlink:href="#v"/><use transform="matrix(0.05,0,0,0.05,31.950000000000003,0)" xlink:href="#s"/><use transform="matrix(0.05,0,0,0.05,41.95,0)" xlink:href="#w"/><use transform="matrix(0.05,0,0,0.05,56.900000000000006,0)" xlink:href="#o"/><use transform="matrix(0.05,0,0,0.05,66.9,0)" xlink:href="#y"/><use transform="matrix(0.05,0,0,0.05,79.85000000000001,0)" xlink:href="#A"/></g><path d="M100-194c63 0 86 42 84 106H49c0 40 14 67 53 68 26 1 43-12 49-29l28 8c-11 28-37 45-77 45C44 4 14-33 15-96c1-61 26-98 85-98zm52 81c6-60-76-77-97-28-3 7-6 17-6 28h103" id="B"/><path d="M135-143c-3-34-86-38-87 0 15 53 115 12 119 90S17 21 10-45l28-5c4 36 97 45 98 0-10-56-113-15-118-90-4-57 82-63 122-42 12 7 21 19 24 35" id="C"/><g id="f"><use transform="matrix(0.05,0,0,0.05,0,0)" xlink:href="#y"/><use transform="matrix(0.05,0,0,0.05,12.950000000000001,0)" xlink:href="#o"/><use transform="matrix(0.05,0,0,0.05,22.950000000000003,0)" xlink:href="#m"/><use transform="matrix(0.05,0,0,0.05,31.950000000000003,0)" xlink:href="#p"/><use transform="matrix(0.05,0,0,0.05,41.95,0)" xlink:href="#w"/><use transform="matrix(0.05,0,0,0.05,56.900000000000006,0)" xlink:href="#B"/><use transform="matrix(0.05,0,0,0.05,66.9,0)" xlink:href="#v"/><use transform="matrix(0.05,0,0,0.05,76.9,0)" xlink:href="#r"/><use transform="matrix(0.05,0,0,0.05,81.9,0)" xlink:href="#C"/></g><path d="M140-251c81 0 123 46 123 126C263-53 228-8 163 1c7 30 30 48 69 40v23c-55 16-95-15-103-61C56-3 17-48 17-125c0-80 42-126 123-126zm0 227c63 0 89-41 89-101s-29-99-89-99c-61 0-89 39-89 99S79-25 140-24" id="D"/><g id="g"><use transform="matrix(0.05,0,0,0.05,0,0)" xlink:href="#l"/><use transform="matrix(0.05,0,0,0.05,12,0)" xlink:href="#D"/><use transform="matrix(0.05,0,0,0.05,26,0)" xlink:href="#l"/></g><path d="M190 0L58-211 59 0H30v-248h39L202-35l-2-213h31V0h-41" id="E"/><g id="h"><use transform="matrix(0.05,0,0,0.05,0,0)" xlink:href="#l"/><use transform="matrix(0.05,0,0,0.05,12,0)" xlink:href="#E"/><use transform="matrix(0.05,0,0,0.05,24.950000000000003,0)" xlink:href="#l"/></g><path d="M194 0L95-120 63-95V0H30v-248h33v124l119-124h40L117-140 236 0h-42" id="F"/><path d="M240 0l2-218c-23 76-54 145-80 218h-23L58-218 59 0H30v-248h44l77 211c21-75 51-140 76-211h43V0h-30" id="G"/><g id="i"><use transform="matrix(0.05,0,0,0.05,0,0)" xlink:href="#F"/><use transform="matrix(0.05,0,0,0.05,12,0)" xlink:href="#G"/><use transform="matrix(0.05,0,0,0.05,26.950000000000003,0)" xlink:href="#l"/></g></defs></g></svg>