<svg xmlns="http://www.w3.org/2000/svg" xmlns:xlink="http://www.w3.org/1999/xlink" xmlns:lucid="lucid" width="1673.45" height="970"><g transform="translate(-46.55 2560)" lucid:page-tab-id="XR3hiAIy_eS4"><path d="M0-2592h1760v1360H0z" fill="#fff"/><path d="M260-2478a30 30 0 0 1 30-30h1380a30 30 0 0 1 30 30v838a30 30 0 0 1-30 30H290a30 30 0 0 1-30-30z" stroke="#474747" fill-opacity="0"/><path d="M368-2505.6v3.54c0 6.42-7.1 13.05-15.76 13.05h-46.48c-8.66 0-15.75-6.64-15.75-13.06v-3.54z" fill="#9d5125"/><path d="M320.03-2540c8.03 0 14.82 4.4 18.17 11.67 4.6-3.14 10.92-1.98 14.04 2.65 1.17 1.64 1.7 3.32 1.8 5.3 7.87.68 13.95 8.25 13.95 14.27v1.3c0 6.45-7.1 13-15.76 13h-46.5c-8.64 0-15.74-6.55-15.74-13v-1.3c0-5.02 4.2-11.87 10.06-13.56v-.57c.08-10.95 8.97-19.82 19.97-19.77z" fill="#f58535"/><path d="M309.54-2516.87l-5.2 18.2h3.04l1.17-4.43h5.38l1.1 4.43h3.05l-4.8-18.2zm-.47 11.4l2.22-8.98 2.1 8.97zM331.2-2502.66h-.03l-2.47-14.2h-3.1l-2.4 14.13h-.06l-2.4-14.14h-2.95l3.53 18.2h3.38l2.35-13.7h.06l2.36 13.7h3.4l3.64-18.2h-2.9l-2.4 14.2zM345.9-2508.6l-1.98-.72c-1.93-.7-2.74-1.53-2.74-3.1-.17-1.26.74-2.43 2-2.6.16-.02.3-.02.45-.02 1.26-.17 2.4.72 2.58 1.96.04.25.03.44 0 .68v.38h2.93v-.4c0-1.9-.5-4.8-5.18-4.8-3.44 0-5.7 1.84-5.7 5.16 0 2.6 1.1 3.97 3.82 5l2 .68c1.6.23 2.73 1.6 2.64 3.2.04 1.45-1.08 2.64-2.5 2.68h-.28c-2 0-3-1.12-3-3.33v-.47h-2.9v.44c0 2.54 1.02 5.53 5.52 5.53 3.7 0 6.07-1.6 6.07-5.48.04-2.5-1.1-3.9-3.7-4.8z" fill="#fff"/><use xlink:href="#a" transform="matrix(1,0,0,1,260,-1640) translate(675.875 12.799999999999999)"/><use xlink:href="#b" transform="matrix(1,0,0,1,260,-1640) translate(721.175 12.799999999999999)"/><path d="M630.5-2150h120v120h-120v-120z" stroke="#fff" stroke-opacity="0" stroke-width="2" fill="#d86613"/><path d="M727.3-2050h-19.72c-.64 0-1.15-.32-1.4-.88l-27.92-58.32h-11.78c-.9 0-1.6-.72-1.6-1.6v-17.6c0-.88.7-1.6 1.6-1.6h24.65c.64 0 1.15.32 1.4.88l27.8 58.32h6.97c.9 0 1.6.72 1.6 1.6v17.6c0 .88-.7 1.6-1.6 1.6zm-18.7-3.2h17.1v-14.4h-6.4c-.64 0-1.15-.32-1.4-.88l-27.8-58.32H668.1v14.4h11.2c.65 0 1.16.32 1.48.88z" stroke="#fff" stroke-opacity="0" stroke-width="2" fill="#fff"/><path d="M674.46-2050h-20.8c-.55 0-1.05-.3-1.37-.73-.33-.54-.33-1.12-.08-1.6L674-2097.8c.24-.58.8-.92 1.4-.92.65 0 1.18.34 1.46.88l10.4 21.43c.26.43.26.92 0 1.4L675.92-2051c-.2.63-.77 1.02-1.44 1.02zm-18.24-3.22h17.24l10.6-22.36-8.6-17.88z" stroke="#fff" stroke-opacity="0" stroke-width="2" fill="#fff"/><use xlink:href="#c" transform="matrix(1,0,0,1,600.5,-2021) translate(19.599999999999994 14.4)"/><use xlink:href="#d" transform="matrix(1,0,0,1,600.5,-2021) translate(106.5 14.4)"/><path d="M350.5-2150h120v120h-120v-120z" stroke="#fff" stroke-opacity="0" stroke-width="2" fill="#3f8624"/><path d="M448.8-2085.94c-.47-2.48-3.3-4.25-5.3-5.53-.62-.4-2.3-1.04-2.46-1.6 0-.4 0-.8.16-1.2l1.6-11.46 1.4-10.17c.37-3.05-1.1-5.13-3.62-6.9-5.13-3.6-11.88-5.04-17.94-6-7.97-1.28-14.95-1.52-23-.72-7.28.48-13.34 1.92-20.08 4.8-3.38 1.6-7.9 4.1-7.3 8.42 1.55 12.97 3.46 25.95 5.23 38.93.75 5.93 1.6 11.86 2.36 17.8.3 2.47 1.7 4.4 4 5.35 4.9 2.65 11.03 3.45 16.63 3.93 7.73.73 14.32.5 22-.95 4.6-.8 13.18-2.25 13.94-8 .92-7.14 1.92-14.27 2.84-21.4l.38-2.17c2.6.64 10.05 2 9.13-3.12zm-40.65-40.86c9.66 0 20.63 1.12 29.2 5.85 1.4.72 4.46 2.32 3.54 4.33-.93 1.92-3.84 2.88-5.6 3.6-2.6.96-5 1.6-7.75 2.16-11.96 2.4-22.54 2.65-34.65.73-5.45-.57-9.97-1.93-14.88-4.33-1.15-.72-3.06-1.84-2.53-3.45.38-.9 1-1.53 1.83-2 3.76-2.4 7.2-3.85 11.58-4.66 6.6-1.6 12.43-2.32 19.25-2.24zm25.15 67.46c-.3 1.84-3.37 2.8-4.83 3.28-3.22 1.12-6.06 1.76-9.43 2.16-7.44.97-13.88.97-21.4 0-4.67-.4-8.58-1.44-12.8-3.52-1.14-.48-1.83-1.52-1.9-2.72-1.62-12.74-3.38-25.4-5.15-38.06l-1.85-13.78c3.84 2.1 7.36 3.37 11.66 4.1 4.68.95 8.6 1.43 13.35 1.75 9.2.64 17.1.24 26.22-1.44 4.83-.72 8.8-2.08 13.1-4.4l-3.37 25.07c-8.58-2.8-15.64-5.6-23.7-9.54-.37-.16-.68-.32-.98-.48-.46-.32-.3-.16-.54-.64-.38-.96-.46-1.6-1.3-2.4-.77-.56-1.6-.8-2.53-.72-2 .08-3.53 1.84-3.38 3.84.16 1.93 1.92 3.45 3.9 3.3.55-.1 1-.25 1.62-.5.6-.15.6-.15 1.22.17 8.2 4 15.33 6.97 24 9.85 1.22.4 1.22 0 1.22 1.04-.07.8-.15 1.53-.3 2.33l-1 7.6zm-24.7-37.9c0 .48-.6.4-.75.16-.23-.32.76-.72.76-.16zm31.52 11.22l.46-3.53c1.6.97 4.3 2.33 5.06 4.1-1.6.63-4.06-.17-5.52-.57z" stroke="#fff" stroke-opacity="0" stroke-width="2" fill="#fff"/><use xlink:href="#e" transform="matrix(1,0,0,1,320.5,-2021) translate(59.525 14.4)"/><path d="M1060-2440h120v120h-120v-120z" stroke="#fff" stroke-opacity="0" stroke-width="2" fill="#3b48cc"/><path d="M1140.4-2375.22l-10.6 10.55c2-.56 3.65-1.2 5.5-2.24 1.1.63 1.68 1.67 1.9 2.87 0 2.96-6.2 6.16-15.4 7.44-3.05.4-5.55.56-8.6.56h-1.58c-12.95-.24-22.42-4.3-22.42-8 .17-1.2.82-2.15 1.9-2.87 5 2.8 13.18 4.47 22.1 4.47h.17l.92-3.2h-1.1c-8.8 0-16.98-1.76-21.28-4.47-1.74-1.12-2.72-2.4-2.72-3.44v-7.44c4.9 3.76 14.64 5.68 24 5.68 1.25 0 2.5 0 3.76-.08l.92-3.2c-1.63.08-3.1.16-4.68.16-13.7 0-24-4.23-24-8 .17-1.27.82-2.23 1.9-2.87 4.42 2.5 11.22 4 18.9 4.4l.1-3.2c-7.56-.4-14.42-2-18.18-4.47-1.74-1.04-2.66-2.3-2.72-3.43v-7.36c4.9 3.76 14.64 5.68 24 5.68h.33l1.74-3.2h-2.07c-13.7 0-24-4.16-24-8 0-3.75 10.3-8 24-8 4.85 0 8.98.5 13.72 1.6h8.8c-4.83-2.95-13.1-4.78-22.52-4.78-13.17 0-27.2 3.9-27.2 11.2v12.86c.1 1.92.92 3.5 2.44 4.7-1.52 1.3-2.34 2.9-2.45 4.8v12.8c.1 2 .92 3.6 2.44 4.87-1.52 1.2-2.34 2.8-2.45 4.8V-2350.93c.43 7.05 14.2 10.8 27.2 10.8s26.78-3.75 27.2-10.87V-2364.12c-.04-1.9-.9-3.6-2.44-4.78 1.53-1.2 2.34-2.88 2.45-4.8zm-3.2 23.98c0 3.76-10.28 8-24 8-13.7 0-24-4.16-24-8v-7.35c4.9 3.68 14.64 5.68 24 5.68s19.1-2 24-5.67z" stroke="#fff" stroke-opacity="0" stroke-width="2" fill="#fff"/><path d="M1096-2395.97c0 1.1-.9 2-2 2s-2-.9-2-2 .9-2 2-2 2 .9 2 2zM1096-2373.57c0 1.1-.9 2-2 2s-2-.9-2-2 .9-2 2-2 2 .9 2 2zM1096-2351.17c0 1.1-.9 2-2 2s-2-.9-2-2 .9-2 2-2 2 .9 2 2zM1117.2-2357.63c-.3 0-.53-.06-.8-.22-.66-.38-.94-1.14-.74-1.85l8.98-29.95h-9.06c-.88.06-1.6-.65-1.6-1.58 0-.27.04-.54.2-.76l9.58-19.2c.28-.56.8-.88 1.45-.88h20.8c.9-.06 1.62.65 1.66 1.52.04.22 0 .38-.04.6l-4.13 12.25h8.97c.88.05 1.6.76 1.6 1.63 0 .43-.16.76-.44 1.1l-35.2 36.8c-.32.37-.72.54-1.24.54zm1-35.18h8.6c.53 0 .97.2 1.3.6.27.43.4.92.23 1.4l-7.7 25.6 28.03-29.24h-7.46c-.88 0-1.64-.65-1.68-1.52 0-.22 0-.44.08-.6l4.1-12.3h-17.6z" stroke="#fff" stroke-opacity="0" stroke-width="2" fill="#fff"/><use xlink:href="#f" transform="matrix(1,0,0,1,1030,-2311) translate(8.599999999999994 14.4)"/><use xlink:href="#g" transform="matrix(1,0,0,1,1030,-2311) translate(79.55 14.4)"/><path d="M910.5-2150h120v120h-120v-120z" stroke="#fff" stroke-opacity="0" stroke-width="2" fill="#3f8624"/><path d="M1008.8-2085.94c-.47-2.48-3.3-4.25-5.3-5.53-.62-.4-2.3-1.04-2.46-1.6 0-.4 0-.8.16-1.2l1.6-11.46 1.4-10.17c.37-3.05-1.1-5.13-3.62-6.9-5.13-3.6-11.88-5.04-17.94-6-7.97-1.28-14.95-1.52-23-.72-7.28.48-13.34 1.92-20.08 4.8-3.38 1.6-7.9 4.1-7.3 8.42 1.55 12.97 3.46 25.95 5.23 38.93.75 5.93 1.6 11.86 2.36 17.8.3 2.47 1.7 4.4 4 5.35 4.9 2.65 11.03 3.45 16.63 3.93 7.73.73 14.32.5 22-.95 4.6-.8 13.18-2.25 13.94-8 .92-7.14 1.92-14.27 2.84-21.4l.38-2.17c2.6.64 10.05 2 9.13-3.12zm-40.65-40.86c9.66 0 20.63 1.12 29.2 5.85 1.4.72 4.46 2.32 3.54 4.33-.93 1.92-3.84 2.88-5.6 3.6-2.6.96-5 1.6-7.75 2.16-11.96 2.4-22.54 2.65-34.65.73-5.45-.57-9.97-1.93-14.88-4.33-1.15-.72-3.06-1.84-2.53-3.45.38-.9 1-1.53 1.83-2 3.76-2.4 7.2-3.85 11.58-4.66 6.6-1.6 12.43-2.32 19.25-2.24zm25.15 67.46c-.3 1.84-3.37 2.8-4.83 3.28-3.22 1.12-6.06 1.76-9.43 2.16-7.44.97-13.88.97-21.4 0-4.67-.4-8.58-1.44-12.8-3.52-1.14-.48-1.83-1.52-1.9-2.72-1.62-12.74-3.38-25.4-5.15-38.06l-1.85-13.78c3.84 2.1 7.36 3.37 11.66 4.1 4.68.95 8.6 1.43 13.35 1.75 9.2.64 17.1.24 26.22-1.44 4.83-.72 8.8-2.08 13.1-4.4l-3.37 25.07c-8.58-2.8-15.64-5.6-23.7-9.54-.37-.16-.68-.32-.98-.48-.46-.32-.3-.16-.54-.64-.38-.96-.46-1.6-1.3-2.4-.77-.56-1.6-.8-2.53-.72-2 .08-3.53 1.84-3.38 3.84.16 1.93 1.92 3.45 3.9 3.3.55-.1 1-.25 1.62-.5.6-.15.6-.15 1.22.17 8.2 4 15.33 6.97 24 9.85 1.22.4 1.22 0 1.22 1.04-.07.8-.15 1.53-.3 2.33l-1 7.6zm-24.7-37.9c0 .48-.6.4-.75.16-.23-.32.76-.72.76-.16zm31.52 11.22l.46-3.53c1.6.97 4.3 2.33 5.06 4.1-1.6.63-4.06-.17-5.52-.57z" stroke="#fff" stroke-opacity="0" stroke-width="2" fill="#fff"/><use xlink:href="#h" transform="matrix(1,0,0,1,880.5,-2021) translate(44.55 14.4)"/><path d="M143.6-2050h-42.8c-.96 0-1.7-.74-1.7-1.68v-63.87c0-.94.74-1.68 1.7-1.68h26.94c.47 0 .83.13 1.16.47l15.9 16c.36.33.5.74.5 1.2v47.88c0 .94-.74 1.68-1.7 1.68zm-41.13-3.43h39.4v-45.45L127-2113.8h-24.53z" stroke="#fff" stroke-opacity="0" fill="#cd2264"/><path d="M96-2056.38h-4.8c-.93 0-1.7-.74-1.7-1.68v-63.88c0-.94.77-1.68 1.7-1.68h28.6v3.43H92.9v60.4H96z" stroke="#fff" stroke-opacity="0" fill="#cd2264"/><path d="M84.87-2062.77H81.7c-.94 0-1.7-.74-1.7-1.68v-63.87c0-.94.76-1.68 1.7-1.68h30.15v3.43H83.38v60.38h1.5zM143.6-2097.86H127.7c-.93 0-1.7-.76-1.7-1.7v-15.97h3.4v14.26h14.17zM105.5-2102.87h14.3v3.4h-14.3v-3.4zM105.5-2091.7h33.33v3.4H105.5v-3.4zM105.5-2080.54h26.98v3.4H105.5v-3.4z" stroke="#fff" stroke-opacity="0" fill="#cd2264"/><path d="M81.55-2128.15h27.93v63.72H81.55v-63.72z" stroke="#fff" stroke-opacity="0" stroke-width=".22" fill="#fff" fill-opacity="0"/><path d="M91.15-2121.66h26.13v63.36H91.15v-63.36z" stroke="#fff" stroke-opacity="0" stroke-width=".21" fill="#fff" fill-opacity="0"/><use xlink:href="#h" transform="matrix(1,0,0,1,50,-2041) translate(17.549999999999997 14.4)"/><path d="M1449.5-2156.03h120v120h-120v-120z" stroke="#fff" stroke-opacity="0" stroke-width="2" fill="#d86613"/><path d="M1546.3-2056.03h-19.72c-.64 0-1.15-.32-1.4-.88l-27.92-58.33h-11.78c-.9 0-1.6-.72-1.6-1.6v-17.6c0-.88.7-1.6 1.6-1.6h24.65c.64 0 1.15.32 1.4.88l27.8 58.32h6.97c.9 0 1.6.72 1.6 1.6v17.6c0 .88-.7 1.6-1.6 1.6zm-18.7-3.2h17.1v-14.4h-6.4c-.64 0-1.15-.32-1.4-.88l-27.8-58.33h-22.02v14.4h11.2c.65 0 1.16.32 1.48.88z" stroke="#fff" stroke-opacity="0" stroke-width="2" fill="#fff"/><path d="M1493.46-2056.03h-20.8c-.55 0-1.05-.3-1.37-.73-.33-.53-.33-1.12-.08-1.6l21.78-45.46c.24-.6.8-.93 1.4-.93.65 0 1.18.34 1.46.88l10.4 21.44c.26.44.26.92 0 1.4l-11.35 23.98c-.2.63-.77 1.02-1.44 1.02zm-18.24-3.2h17.24l10.6-22.37-8.6-17.88z" stroke="#fff" stroke-opacity="0" stroke-width="2" fill="#fff"/><use xlink:href="#c" transform="matrix(1,0,0,1,1419.5,-2027.0264819277108) translate(17.57499999999999 14.4)"/><use xlink:href="#i" transform="matrix(1,0,0,1,1419.5,-2027.0264819277108) translate(104.475 14.4)"/><path d="M1190.5-2121.12v56.28L1240-2040l49.5-24.84v-14.04l-42.08-5.28v-31.68l42.08-5.28v-14.04L1240-2160l-49.5 24.84v14.04z" fill="#876929"/><path d="M1190.52-2078.92l49.47 14.9v24l-49.48-24.8v-14.1z" fill="#876929"/><path d="M1196.8-2061.68l-6.3-3.15v-70.36l6.33-3.13-.02 76.65z" fill="#876929"/><path d="M1247.42-2084.15l-50.6 7.13V-2123l50.6 7.17v31.68zM1289.5-2121.08l-49.5-14.95V-2160l49.5 24.87v14.05zM1289.47-2078.9L1240-2064v24l49.47-24.86v-14.04z" fill="#d9a741"/><path d="M1221.76-2087.14l18.23 2.28v-30.43l-18.24 2.32v25.84zM1203.4-2089.4l11.83 1.46v-24.18l-11.83 1.5v21.2z" fill="#876929"/><path d="M1196.83-2123l43.18-13 49.5 14.9-42.08 5.25-50.6-7.16z" fill="#624a1e"/><path d="M1196.8-2077.02L1240-2064l49.48-14.9-42.06-5.26-50.6 7.14z" fill="#fad791"/><path d="M1289.47-2091.12l-49.47 6.26v-30.43l49.47 6.34v17.84z" fill="#d9a741"/><use xlink:href="#j" transform="matrix(1,0,0,1,1190.5,-2040) translate(8.549999999999997 14.4)"/><use xlink:href="#k" transform="matrix(1,0,0,1,1190.5,-2040) translate(5.049999999999997 36)"/><use xlink:href="#l" transform="matrix(1,0,0,1,1190.5,-2040) translate(22.5 57.6)"/><path d="M471.5-2090H612" stroke="#000" stroke-width="2" fill="none"/><path d="M471.53-2089h-1.03v-2h1.03z" stroke="#000" stroke-width=".05"/><path d="M627.26-2090l-14.26 4.64v-9.28z" stroke="#000" stroke-width="2"/><path d="M751.5-2090H892" stroke="#000" stroke-width="2" fill="none"/><path d="M751.53-2089h-1.03v-2h1.03z" stroke="#000" stroke-width=".05"/><path d="M907.26-2090l-14.26 4.64v-9.28z" stroke="#000" stroke-width="2"/><path d="M1031.5-2090H1172" stroke="#000" stroke-width="2" fill="none"/><path d="M1031.53-2089h-1.03v-2h1.03z" stroke="#000" stroke-width=".05"/><path d="M1187.26-2090l-14.26 4.64v-9.28z" stroke="#000" stroke-width="2"/><path d="M1290.47-2096.03H1431" stroke="#000" stroke-width="2" fill="none"/><path d="M1290.5-2095.03h-1.03v-2h1.03z" stroke="#000" stroke-width=".05"/><path d="M1446.26-2096.03l-14.26 4.64v-9.26z" stroke="#000" stroke-width="2"/><path d="M690.5-2151v-229h351" stroke="#000" stroke-width="2" fill="none"/><path d="M691.5-2150h-2v-1.03h2z" stroke="#000" stroke-width=".05"/><path d="M1056.76-2380l-14.26 4.64v-9.28z" stroke="#000" stroke-width="2"/><path d="M1509.5-2157.03V-2380h-311" stroke="#000" stroke-width="2" fill="none"/><path d="M1510.5-2156.03h-2v-1.02h2z" stroke="#000" stroke-width=".05"/><path d="M1183.24-2380l14.26-4.64v9.28z" stroke="#000" stroke-width="2"/><path d="M956.84-1796.46l-12.4-3.46-11.72-13.33 13.08 1.08 11.04 15.7z" fill="#b8852e"/><path d="M956.85-1796.46l8.86-18.54-8.27-1.16-11.64 4 11.05 15.7z" fill="#d9a741"/><path d="M928.18-1805.24l-6.97-1.96-7.66-8.74 8.15 1.28 6.48 9.42z" fill="#b8852e"/><path d="M928.17-1805.24l5-10.44-4.66-.66-6.82 1.67 6.5 9.43z" fill="#d9a741"/><path d="M910.5-1815.68l7.14 1.47 34.86-30.3-34.86-33.87-7.14 3.6v59.1z" fill="#876929"/><path d="M945.14-1872.4v55.63l-27.52 2.56v-64.17l27.52 5.97z" fill="#d9a741"/><path d="M926.4-1812.32l12.23 2.46 33.7-39-33.7-40.1-12.22 6.16v70.48z" fill="#876929"/><path d="M1008.35-1866.9v48.1l-69.72 8.94v-79.1l69.72 22.06z" fill="#d9a741"/><path d="M995.72-1785l-17.6-4.93-16.66-18.96 18.57 1.56 15.7 22.33z" fill="#b8852e"/><path d="M995.72-1785l12.62-26.34-11.8-1.68-16.5 5.7 15.68 22.3z" fill="#d9a741"/><path d="M952.5-1807.23l17.95 3.44 24.37-50.6-24.37-50.6-17.95 9.1v88.67z" fill="#876929"/><path d="M970.46-1803.8l60.03-11.93v-59.3L970.45-1905v101.2z" fill="#d9a741"/><use xlink:href="#j" transform="matrix(1,0,0,1,910.5,-1785) translate(19.049999999999997 14.4)"/><use xlink:href="#m" transform="matrix(1,0,0,1,910.5,-1785) translate(7.549999999999997 36)"/><use xlink:href="#n" transform="matrix(1,0,0,1,910.5,-1785) translate(66.45 36)"/><path d="M751.5-2090h79v255H892" stroke="#000" stroke-width="2" fill="none"/><path d="M751.53-2089h-1.03v-2h1.03z" stroke="#000" stroke-width=".05"/><path d="M907.26-1835l-14.26 4.64v-9.28z" stroke="#000" stroke-width="2"/><path d="M1570.5-2096.03h39V-1835H1049" stroke="#000" stroke-width="2" fill="none"/><path d="M1570.53-2095.03h-1.03v-2h1.03z" stroke="#000" stroke-width=".05"/><path d="M1033.72-1835l14.27-4.64v9.28z" stroke="#000" stroke-width="2"/><path d="M146.3-2090H332" stroke="#000" stroke-width="2" fill="none"/><path d="M146.33-2089h-1.03v-2h1.03z" stroke="#000" stroke-width=".05"/><path d="M347.26-2090l-14.26 4.64v-9.28z" stroke="#000" stroke-width="2"/><path d="M460-2372.5l-24.05-.98-15.57.97 25.7 35.1 13.9-35.1z" fill="#fad791"/><path d="M460-2387.02l-24.05.97-15.57-.97 25.7-35.1 13.9 35.1zM361-2387.1l24.04 1.05 15.57-1-25.7-34.9-13.9 34.86z" fill="#624a1e"/><path d="M361-2372.5l24.04-.98 15.57.97-25.7 35.14-13.9-35.15z" fill="#fad791"/><path d="M446.1-2388.44l13.9 1.4v-28.1l-13.9-7v33.7z" fill="#d9a741"/><path d="M420.38-2415.15l25.7-6.98v33.7l-25.7 1.4v-28.12z" fill="#876929"/><path d="M410.5-2419.25l27.84 9.14v13.9l-27.84-4.94v-18.1z" fill="#d9a741"/><path d="M397.96-2398.84l12.76-2.26 27.62 4.9-12.36 1.36-28.02-4z" fill="#624a1e"/><path d="M374.9-2388.46l-13.9 1.37v-28.2l13.9-6.87v33.7z" fill="#876929"/><path d="M400.6-2415.18l-25.7-7v33.73l25.7 1.4v-28.13z" fill="#d9a741"/><path d="M410.5-2419.25l-27.85 9.14v13.9l27.84-4.94v-18.1z" fill="#876929"/><path d="M423.03-2398.84l-12.76-2.26-27.62 4.9 12.36 1.36 28.03-4z" fill="#624a1e"/><path d="M446.1-2371.1l13.9-1.4v28.12l-13.9 6.98v-33.7z" fill="#d9a741"/><path d="M420.38-2344.38l25.7 6.98v-33.7l-25.7-1.4v28.12z" fill="#876929"/><path d="M410.5-2340.3l27.84-9.14v-13.9l-27.84 4.94v18.1z" fill="#d9a741"/><path d="M397.96-2360.7l12.76 2.24 27.62-4.88-12.36-1.35-28.02 4z" fill="#fad791"/><path d="M374.9-2371.1l-13.9-1.4v28.1l13.9 7.02v-33.72z" fill="#876929"/><path d="M400.6-2344.37l-25.7 7v-33.73l25.7-1.4v28.13z" fill="#d9a741"/><path d="M410.5-2340.3l-27.85-9.14v-13.9l27.84 4.94v18.1z" fill="#876929"/><path d="M423.03-2360.7l-12.76 2.24-27.62-4.88 12.36-1.35 28.03 4z" fill="#fad791"/><path d="M395.7-2327.44l14.8 7.44 8.2-4.08 6.6-108.48-14.8-7.44-14.8 7.44v105.12z" fill="#876929"/><path d="M425.3-2327.44l-14.8 7.44v-120l14.8 7.44v105.12z" fill="#d9a741"/><g><use xlink:href="#o" transform="matrix(1,0,0,1,361,-2320) translate(35 14.4)"/><use xlink:href="#p" transform="matrix(1,0,0,1,361,-2320) translate(14.024999999999999 36)"/></g><path d="M146.3-2090H290v-280h52.5" stroke="#000" stroke-width="2" fill="none"/><path d="M146.33-2089h-1.03v-2h1.03z" stroke="#000" stroke-width=".05"/><path d="M357.76-2370l-14.26 4.64v-9.28z" stroke="#000" stroke-width="2"/><path d="M461-2370h39v180h-89.5v21.5" stroke="#000" stroke-width="2" fill="none"/><path d="M458.6-2369H457v-2h2.4zm2.42 0H460v-2H461z" stroke="#000" stroke-width=".05"/><path d="M410.5-2153.24l-4.64-14.26h9.28z" stroke="#000" stroke-width="2"/><defs><path d="M205 0l-28-72H64L36 0H1l101-248h38L239 0h-34zm-38-99l-47-123c-12 45-31 82-46 123h93" id="q"/><path d="M266 0h-40l-56-210L115 0H75L2-248h35L96-30l15-64 43-154h32l59 218 59-218h35" id="r"/><path d="M185-189c-5-48-123-54-124 2 14 75 158 14 163 119 3 78-121 87-175 55-17-10-28-26-33-46l33-7c5 56 141 63 141-1 0-78-155-14-162-118-5-82 145-84 179-34 5 7 8 16 11 25" id="s"/><g id="a"><use transform="matrix(0.05,0,0,0.05,0,0)" xlink:href="#q"/><use transform="matrix(0.05,0,0,0.05,11.35,0)" xlink:href="#r"/><use transform="matrix(0.05,0,0,0.05,28.299999999999997,0)" xlink:href="#s"/></g><path d="M96-169c-40 0-48 33-48 73s9 75 48 75c24 0 41-14 43-38l32 2c-6 37-31 61-74 61-59 0-76-41-82-99-10-93 101-131 147-64 4 7 5 14 7 22l-32 3c-4-21-16-35-41-35" id="t"/><path d="M24 0v-261h32V0H24" id="u"/><path d="M100-194c62-1 85 37 85 99 1 63-27 99-86 99S16-35 15-95c0-66 28-99 85-99zM99-20c44 1 53-31 53-75 0-43-8-75-51-75s-53 32-53 75 10 74 51 75" id="v"/><path d="M84 4C-5 8 30-112 23-190h32v120c0 31 7 50 39 49 72-2 45-101 50-169h31l1 190h-30c-1-10 1-25-2-33-11 22-28 36-60 37" id="w"/><path d="M85-194c31 0 48 13 60 33l-1-100h32l1 261h-30c-2-10 0-23-3-31C134-8 116 4 85 4 32 4 16-35 15-94c0-66 23-100 70-100zm9 24c-40 0-46 34-46 75 0 40 6 74 45 74 42 0 51-32 51-76 0-42-9-74-50-73" id="x"/><g id="b"><use transform="matrix(0.05,0,0,0.05,0,0)" xlink:href="#t"/><use transform="matrix(0.05,0,0,0.05,9,0)" xlink:href="#u"/><use transform="matrix(0.05,0,0,0.05,12.949999999999998,0)" xlink:href="#v"/><use transform="matrix(0.05,0,0,0.05,22.95,0)" xlink:href="#w"/><use transform="matrix(0.05,0,0,0.05,32.95,0)" xlink:href="#x"/></g><path d="M30-248c118-7 216 8 213 122C240-48 200 0 122 0H30v-248zM63-27c89 8 146-16 146-99s-60-101-146-95v194" id="y"/><path d="M210-169c-67 3-38 105-44 169h-31v-121c0-29-5-50-35-48C34-165 62-65 56 0H25l-1-190h30c1 10-1 24 2 32 10-44 99-50 107 0 11-21 27-35 58-36 85-2 47 119 55 194h-31v-121c0-29-5-49-35-48" id="z"/><path d="M100-194c63 0 86 42 84 106H49c0 40 14 67 53 68 26 1 43-12 49-29l28 8c-11 28-37 45-77 45C44 4 14-33 15-96c1-61 26-98 85-98zm52 81c6-60-76-77-97-28-3 7-6 17-6 28h103" id="A"/><path d="M117-194c89-4 53 116 60 194h-32v-121c0-31-8-49-39-48C34-167 62-67 57 0H25l-1-190h30c1 10-1 24 2 32 11-22 29-35 61-36" id="B"/><path d="M59-47c-2 24 18 29 38 22v24C64 9 27 4 27-40v-127H5v-23h24l9-43h21v43h35v23H59v120" id="C"/><g id="c"><use transform="matrix(0.05,0,0,0.05,0,0)" xlink:href="#y"/><use transform="matrix(0.05,0,0,0.05,12.950000000000001,0)" xlink:href="#v"/><use transform="matrix(0.05,0,0,0.05,22.950000000000003,0)" xlink:href="#t"/><use transform="matrix(0.05,0,0,0.05,31.950000000000003,0)" xlink:href="#w"/><use transform="matrix(0.05,0,0,0.05,41.95,0)" xlink:href="#z"/><use transform="matrix(0.05,0,0,0.05,56.900000000000006,0)" xlink:href="#A"/><use transform="matrix(0.05,0,0,0.05,66.9,0)" xlink:href="#B"/><use transform="matrix(0.05,0,0,0.05,76.9,0)" xlink:href="#C"/></g><path d="M212-179c-10-28-35-45-73-45-59 0-87 40-87 99 0 60 29 101 89 101 43 0 62-24 78-52l27 14C228-24 195 4 139 4 59 4 22-46 18-125c-6-104 99-153 187-111 19 9 31 26 39 46" id="D"/><path d="M114-163C36-179 61-72 57 0H25l-1-190h30c1 12-1 29 2 39 6-27 23-49 58-41v29" id="E"/><path d="M141-36C126-15 110 5 73 4 37 3 15-17 15-53c-1-64 63-63 125-63 3-35-9-54-41-54-24 1-41 7-42 31l-33-3c5-37 33-52 76-52 45 0 72 20 72 64v82c-1 20 7 32 28 27v20c-31 9-61-2-59-35zM48-53c0 20 12 33 32 33 41-3 63-29 60-74-43 2-92-5-92 41" id="F"/><g id="d"><use transform="matrix(0.05,0,0,0.05,0,0)" xlink:href="#D"/><use transform="matrix(0.05,0,0,0.05,12.950000000000001,0)" xlink:href="#E"/><use transform="matrix(0.05,0,0,0.05,18.900000000000002,0)" xlink:href="#A"/><use transform="matrix(0.05,0,0,0.05,28.900000000000002,0)" xlink:href="#F"/><use transform="matrix(0.05,0,0,0.05,38.900000000000006,0)" xlink:href="#C"/><use transform="matrix(0.05,0,0,0.05,43.900000000000006,0)" xlink:href="#A"/></g><path d="M177-190C167-65 218 103 67 71c-23-6-38-20-44-43l32-5c15 47 100 32 89-28v-30C133-14 115 1 83 1 29 1 15-40 15-95c0-56 16-97 71-98 29-1 48 16 59 35 1-10 0-23 2-32h30zM94-22c36 0 50-32 50-73 0-42-14-75-50-75-39 0-46 34-46 75s6 73 46 73" id="G"/><path d="M24-231v-30h32v30H24zM24 0v-190h32V0H24" id="H"/><g id="e"><use transform="matrix(0.05,0,0,0.05,0,0)" xlink:href="#s"/><use transform="matrix(0.05,0,0,0.05,12,0)" xlink:href="#C"/><use transform="matrix(0.05,0,0,0.05,17,0)" xlink:href="#F"/><use transform="matrix(0.05,0,0,0.05,27,0)" xlink:href="#G"/><use transform="matrix(0.05,0,0,0.05,37,0)" xlink:href="#H"/><use transform="matrix(0.05,0,0,0.05,40.95,0)" xlink:href="#B"/><use transform="matrix(0.05,0,0,0.05,50.95,0)" xlink:href="#G"/></g><path d="M9 0v-24l116-142H16v-24h144v24L44-24h123V0H9" id="I"/><g id="f"><use transform="matrix(0.05,0,0,0.05,0,0)" xlink:href="#q"/><use transform="matrix(0.05,0,0,0.05,12,0)" xlink:href="#z"/><use transform="matrix(0.05,0,0,0.05,26.950000000000003,0)" xlink:href="#F"/><use transform="matrix(0.05,0,0,0.05,36.95,0)" xlink:href="#I"/><use transform="matrix(0.05,0,0,0.05,45.95,0)" xlink:href="#v"/><use transform="matrix(0.05,0,0,0.05,55.95,0)" xlink:href="#B"/></g><path d="M179-190L93 31C79 59 56 82 12 73V49c39 6 53-20 64-50L1-190h34L92-34l54-156h33" id="J"/><path d="M160-131c35 5 61 23 61 61C221 17 115-2 30 0v-248c76 3 177-17 177 60 0 33-19 50-47 57zm-97-11c50-1 110 9 110-42 0-47-63-36-110-37v79zm0 115c55-2 124 14 124-45 0-56-70-42-124-44v89" id="K"/><g id="g"><use transform="matrix(0.05,0,0,0.05,0,0)" xlink:href="#y"/><use transform="matrix(0.05,0,0,0.05,12.950000000000001,0)" xlink:href="#J"/><use transform="matrix(0.05,0,0,0.05,21.950000000000003,0)" xlink:href="#B"/><use transform="matrix(0.05,0,0,0.05,31.950000000000003,0)" xlink:href="#F"/><use transform="matrix(0.05,0,0,0.05,41.95,0)" xlink:href="#z"/><use transform="matrix(0.05,0,0,0.05,56.900000000000006,0)" xlink:href="#v"/><use transform="matrix(0.05,0,0,0.05,66.9,0)" xlink:href="#y"/><use transform="matrix(0.05,0,0,0.05,79.85000000000001,0)" xlink:href="#K"/></g><path d="M135-143c-3-34-86-38-87 0 15 53 115 12 119 90S17 21 10-45l28-5c4 36 97 45 98 0-10-56-113-15-118-90-4-57 82-63 122-42 12 7 21 19 24 35" id="L"/><g id="h"><use transform="matrix(0.05,0,0,0.05,0,0)" xlink:href="#y"/><use transform="matrix(0.05,0,0,0.05,12.950000000000001,0)" xlink:href="#v"/><use transform="matrix(0.05,0,0,0.05,22.950000000000003,0)" xlink:href="#t"/><use transform="matrix(0.05,0,0,0.05,31.950000000000003,0)" xlink:href="#w"/><use transform="matrix(0.05,0,0,0.05,41.95,0)" xlink:href="#z"/><use transform="matrix(0.05,0,0,0.05,56.900000000000006,0)" xlink:href="#A"/><use transform="matrix(0.05,0,0,0.05,66.9,0)" xlink:href="#B"/><use transform="matrix(0.05,0,0,0.05,76.9,0)" xlink:href="#C"/><use transform="matrix(0.05,0,0,0.05,81.9,0)" xlink:href="#L"/></g><path d="M232-93c-1 65-40 97-104 97C67 4 28-28 28-90v-158h33c8 89-33 224 67 224 102 0 64-133 71-224h33v155" id="M"/><path d="M115-194c55 1 70 41 70 98S169 2 115 4C84 4 66-9 55-30l1 105H24l-1-265h31l2 30c10-21 28-34 59-34zm-8 174c40 0 45-34 45-75s-6-73-45-74c-42 0-51 32-51 76 0 43 10 73 51 73" id="N"/><g id="i"><use transform="matrix(0.05,0,0,0.05,0,0)" xlink:href="#M"/><use transform="matrix(0.05,0,0,0.05,12.950000000000001,0)" xlink:href="#N"/><use transform="matrix(0.05,0,0,0.05,22.950000000000003,0)" xlink:href="#x"/><use transform="matrix(0.05,0,0,0.05,32.95,0)" xlink:href="#F"/><use transform="matrix(0.05,0,0,0.05,42.95,0)" xlink:href="#C"/><use transform="matrix(0.05,0,0,0.05,47.95,0)" xlink:href="#A"/></g><g id="j"><use transform="matrix(0.05,0,0,0.05,0,0)" xlink:href="#y"/><use transform="matrix(0.05,0,0,0.05,12.950000000000001,0)" xlink:href="#v"/><use transform="matrix(0.05,0,0,0.05,22.950000000000003,0)" xlink:href="#t"/><use transform="matrix(0.05,0,0,0.05,31.950000000000003,0)" xlink:href="#w"/><use transform="matrix(0.05,0,0,0.05,41.95,0)" xlink:href="#z"/><use transform="matrix(0.05,0,0,0.05,56.900000000000006,0)" xlink:href="#A"/><use transform="matrix(0.05,0,0,0.05,66.9,0)" xlink:href="#B"/><use transform="matrix(0.05,0,0,0.05,76.9,0)" xlink:href="#C"/></g><path d="M30-248c87 1 191-15 191 75 0 78-77 80-158 76V0H30v-248zm33 125c57 0 124 11 124-50 0-59-68-47-124-48v98" id="O"/><g id="k"><use transform="matrix(0.05,0,0,0.05,0,0)" xlink:href="#O"/><use transform="matrix(0.05,0,0,0.05,12,0)" xlink:href="#E"/><use transform="matrix(0.05,0,0,0.05,17.95,0)" xlink:href="#v"/><use transform="matrix(0.05,0,0,0.05,27.950000000000003,0)" xlink:href="#t"/><use transform="matrix(0.05,0,0,0.05,36.95,0)" xlink:href="#A"/><use transform="matrix(0.05,0,0,0.05,46.95,0)" xlink:href="#L"/><use transform="matrix(0.05,0,0,0.05,55.95,0)" xlink:href="#L"/><use transform="matrix(0.05,0,0,0.05,64.95,0)" xlink:href="#H"/><use transform="matrix(0.05,0,0,0.05,68.9,0)" xlink:href="#B"/><use transform="matrix(0.05,0,0,0.05,78.9,0)" xlink:href="#G"/></g><path d="M140-251c81 0 123 46 123 126C263-53 228-8 163 1c7 30 30 48 69 40v23c-55 16-95-15-103-61C56-3 17-48 17-125c0-80 42-126 123-126zm0 227c63 0 89-41 89-101s-29-99-89-99c-61 0-89 39-89 99S79-25 140-24" id="P"/><g id="l"><use transform="matrix(0.05,0,0,0.05,0,0)" xlink:href="#P"/><use transform="matrix(0.05,0,0,0.05,14,0)" xlink:href="#w"/><use transform="matrix(0.05,0,0,0.05,24,0)" xlink:href="#A"/><use transform="matrix(0.05,0,0,0.05,34,0)" xlink:href="#w"/><use transform="matrix(0.05,0,0,0.05,44,0)" xlink:href="#A"/></g><g id="m"><use transform="matrix(0.05,0,0,0.05,0,0)" xlink:href="#D"/><use transform="matrix(0.05,0,0,0.05,12.950000000000001,0)" xlink:href="#E"/><use transform="matrix(0.05,0,0,0.05,18.900000000000002,0)" xlink:href="#A"/><use transform="matrix(0.05,0,0,0.05,28.900000000000002,0)" xlink:href="#F"/><use transform="matrix(0.05,0,0,0.05,38.900000000000006,0)" xlink:href="#C"/><use transform="matrix(0.05,0,0,0.05,43.900000000000006,0)" xlink:href="#A"/></g><path d="M30 0v-248h187v28H63v79h144v27H63v87h162V0H30" id="Q"/><path d="M108 0H70L1-190h34L89-25l56-165h34" id="R"/><g id="n"><use transform="matrix(0.05,0,0,0.05,0,0)" xlink:href="#Q"/><use transform="matrix(0.05,0,0,0.05,12,0)" xlink:href="#R"/><use transform="matrix(0.05,0,0,0.05,21,0)" xlink:href="#A"/><use transform="matrix(0.05,0,0,0.05,31,0)" xlink:href="#B"/><use transform="matrix(0.05,0,0,0.05,41,0)" xlink:href="#C"/></g><path d="M33 0v-248h34V0H33" id="S"/><g id="o"><use transform="matrix(0.05,0,0,0.05,0,0)" xlink:href="#q"/><use transform="matrix(0.05,0,0,0.05,12,0)" xlink:href="#O"/><use transform="matrix(0.05,0,0,0.05,24,0)" xlink:href="#S"/></g><path d="M143 4C61 4 22-44 18-125c-5-107 100-154 193-111 17 8 29 25 37 43l-32 9c-13-25-37-40-76-40-61 0-88 39-88 99 0 61 29 100 91 101 35 0 62-11 79-27v-45h-74v-28h105v86C228-13 192 4 143 4" id="T"/><path d="M206 0h-36l-40-164L89 0H53L-1-190h32L70-26l43-164h34l41 164 42-164h31" id="U"/><g id="p"><use transform="matrix(0.05,0,0,0.05,0,0)" xlink:href="#T"/><use transform="matrix(0.05,0,0,0.05,14,0)" xlink:href="#F"/><use transform="matrix(0.05,0,0,0.05,24,0)" xlink:href="#C"/><use transform="matrix(0.05,0,0,0.05,29,0)" xlink:href="#A"/><use transform="matrix(0.05,0,0,0.05,39,0)" xlink:href="#U"/><use transform="matrix(0.05,0,0,0.05,51.95,0)" xlink:href="#F"/><use transform="matrix(0.05,0,0,0.05,61.95,0)" xlink:href="#J"/></g></defs></g></svg>