<svg xmlns="http://www.w3.org/2000/svg" xmlns:xlink="http://www.w3.org/1999/xlink" xmlns:lucid="lucid" width="1177.65" height="452.19"><g transform="translate(-102.35 2021.5860131485454)" lucid:page-tab-id="0_0"><path d="M0-2592h1760v1360H0z" fill="#fff"/><path d="M389.5-1760h120v120h-120v-120z" stroke="#fff" stroke-opacity="0" stroke-width="2" fill="#3f8624"/><path d="M487.8-1695.94c-.47-2.48-3.3-4.25-5.3-5.53-.62-.4-2.3-1.04-2.46-1.6 0-.4 0-.8.16-1.2l1.6-11.46 1.4-10.17c.37-3.05-1.1-5.13-3.62-6.9-5.13-3.6-11.88-5.04-17.94-6-7.97-1.28-14.95-1.52-23-.72-7.28.48-13.34 1.92-20.08 4.8-3.38 1.6-7.9 4.1-7.3 8.42 1.55 12.97 3.46 25.95 5.23 38.93.75 5.93 1.6 11.86 2.36 17.8.3 2.47 1.7 4.4 4 5.35 4.9 2.65 11.03 3.45 16.63 3.93 7.73.73 14.32.5 22-.95 4.6-.8 13.18-2.25 13.94-8 .92-7.14 1.92-14.27 2.84-21.4l.38-2.17c2.6.64 10.05 2 9.13-3.12zm-40.65-40.86c9.66 0 20.63 1.12 29.2 5.85 1.4.72 4.46 2.32 3.54 4.33-.93 1.92-3.84 2.88-5.6 3.6-2.6.96-5 1.6-7.75 2.16-11.96 2.4-22.54 2.65-34.65.73-5.45-.57-9.97-1.93-14.88-4.33-1.15-.72-3.06-1.84-2.53-3.45.38-.9 1-1.53 1.83-2 3.76-2.4 7.2-3.85 11.58-4.66 6.6-1.6 12.43-2.32 19.25-2.24zm25.15 67.46c-.3 1.84-3.37 2.8-4.83 3.28-3.22 1.12-6.06 1.76-9.43 2.16-7.44.97-13.88.97-21.4 0-4.67-.4-8.58-1.44-12.8-3.52-1.14-.48-1.83-1.52-1.9-2.72-1.62-12.74-3.38-25.4-5.15-38.06l-1.85-13.78c3.84 2.1 7.36 3.37 11.66 4.1 4.68.95 8.6 1.43 13.35 1.75 9.2.64 17.1.24 26.22-1.44 4.83-.72 8.8-2.08 13.1-4.4l-3.37 25.07c-8.58-2.8-15.64-5.6-23.7-9.54-.37-.16-.68-.32-.98-.48-.46-.32-.3-.16-.54-.64-.38-.96-.46-1.6-1.3-2.4-.77-.56-1.6-.8-2.53-.72-2 .08-3.53 1.84-3.38 3.84.16 1.93 1.92 3.45 3.9 3.3.55-.1 1-.25 1.62-.5.6-.15.6-.15 1.22.17 8.2 4 15.33 6.97 24 9.85 1.22.4 1.22 0 1.22 1.04-.07.8-.15 1.53-.3 2.33l-1 7.6zm-24.7-37.9c0 .48-.6.4-.75.16-.23-.32.76-.72.76-.16zm31.52 11.22l.46-3.53c1.6.97 4.3 2.33 5.06 4.1-1.6.63-4.06-.17-5.52-.57z" stroke="#fff" stroke-opacity="0" stroke-width="2" fill="#fff"/><use xlink:href="#a" transform="matrix(1,0,0,1,359.5,-1631) translate(25.32499999999999 14.4)"/><use xlink:href="#b" transform="matrix(1,0,0,1,359.5,-1631) translate(70.87499999999999 14.4)"/><path d="M639-1991.6h120v120H639v-120z" stroke="#fff" stroke-opacity="0" stroke-width="2" fill="#d86613"/><path d="M735.8-1891.6h-19.72c-.64 0-1.15-.3-1.4-.87l-27.92-58.32h-11.78c-.9 0-1.6-.7-1.6-1.6v-17.6c0-.87.7-1.6 1.6-1.6h24.65c.64 0 1.15.33 1.4.9l27.8 58.3h6.97c.9 0 1.6.73 1.6 1.6v17.6c0 .9-.7 1.6-1.6 1.6zm-18.7-3.2h17.1v-14.4h-6.4c-.64 0-1.15-.3-1.4-.87l-27.8-58.32H676.6v14.4h11.2c.65 0 1.16.33 1.48.9z" stroke="#fff" stroke-opacity="0" stroke-width="2" fill="#fff"/><path d="M682.96-1891.6h-20.8c-.55 0-1.05-.28-1.37-.72-.33-.53-.33-1.12-.08-1.6l21.78-45.46c.24-.58.8-.93 1.4-.93.65 0 1.18.34 1.46.87l10.4 21.44c.26.45.26.93 0 1.42l-11.35 23.97c-.2.62-.77 1-1.44 1zm-18.24-3.2h17.24l10.6-22.36-8.6-17.88z" stroke="#fff" stroke-opacity="0" stroke-width="2" fill="#fff"/><use xlink:href="#c" transform="matrix(1,0,0,1,609,-1862.5860131485454) translate(22.775000000000006 14.4)"/><use xlink:href="#d" transform="matrix(1,0,0,1,609,-1862.5860131485454) translate(90.275 14.4)"/><path d="M140-1760h120v120H140v-120z" stroke="#fff" stroke-opacity="0" stroke-width="2" fill="#d86613"/><path d="M236.8-1660h-19.72c-.64 0-1.15-.32-1.4-.88l-27.92-58.32h-11.78c-.9 0-1.6-.72-1.6-1.6v-17.6c0-.88.7-1.6 1.6-1.6h24.65c.64 0 1.15.32 1.4.88l27.8 58.32h6.97c.9 0 1.6.72 1.6 1.6v17.6c0 .88-.7 1.6-1.6 1.6zm-18.7-3.2h17.1v-14.4h-6.4c-.64 0-1.15-.32-1.4-.88l-27.8-58.32H177.6v14.4h11.2c.65 0 1.16.32 1.48.88z" stroke="#fff" stroke-opacity="0" stroke-width="2" fill="#fff"/><path d="M183.96-1660h-20.8c-.55 0-1.05-.3-1.37-.73-.33-.54-.33-1.12-.08-1.6l21.78-45.46c.24-.58.8-.92 1.4-.92.65 0 1.18.34 1.46.88l10.4 21.43c.26.43.26.92 0 1.4L185.42-1661c-.2.63-.77 1.02-1.44 1.02zm-18.24-3.22h17.24l10.6-22.36-8.6-17.88z" stroke="#fff" stroke-opacity="0" stroke-width="2" fill="#fff"/><use xlink:href="#c" transform="matrix(1,0,0,1,110,-1631) translate(14.349999999999994 14.4)"/><use xlink:href="#e" transform="matrix(1,0,0,1,110,-1631) translate(81.85 14.4)"/><use xlink:href="#f" transform="matrix(1,0,0,1,110,-1631) translate(58.05 36)"/><path d="M900-1760h120v120H900v-120z" stroke="#fff" stroke-opacity="0" stroke-width="2" fill="#3f8624"/><path d="M998.3-1695.94c-.47-2.48-3.3-4.25-5.3-5.53-.62-.4-2.3-1.04-2.46-1.6 0-.4 0-.8.16-1.2l1.6-11.46 1.4-10.17c.37-3.05-1.1-5.13-3.62-6.9-5.13-3.6-11.88-5.04-17.94-6-7.97-1.28-14.95-1.52-23-.72-7.28.48-13.34 1.92-20.08 4.8-3.38 1.6-7.9 4.1-7.3 8.42 1.55 12.97 3.46 25.95 5.23 38.93.75 5.93 1.6 11.86 2.36 17.8.3 2.47 1.7 4.4 4 5.35 4.9 2.65 11.03 3.45 16.63 3.93 7.73.73 14.32.5 22-.95 4.6-.8 13.18-2.25 13.94-8 .92-7.14 1.92-14.27 2.84-21.4l.38-2.17c2.6.64 10.05 2 9.13-3.12zm-40.65-40.86c9.66 0 20.63 1.12 29.2 5.85 1.4.72 4.46 2.32 3.54 4.33-.93 1.92-3.84 2.88-5.6 3.6-2.6.96-5 1.6-7.75 2.16-11.96 2.4-22.54 2.65-34.65.73-5.45-.57-9.97-1.93-14.88-4.33-1.15-.72-3.06-1.84-2.53-3.45.38-.9 1-1.53 1.83-2 3.76-2.4 7.2-3.85 11.58-4.66 6.6-1.6 12.43-2.32 19.25-2.24zm25.15 67.46c-.3 1.84-3.37 2.8-4.83 3.28-3.22 1.12-6.06 1.76-9.43 2.16-7.44.97-13.88.97-21.4 0-4.67-.4-8.58-1.44-12.8-3.52-1.14-.48-1.83-1.52-1.9-2.72-1.62-12.74-3.38-25.4-5.15-38.06l-1.85-13.78c3.84 2.1 7.36 3.37 11.66 4.1 4.68.95 8.6 1.43 13.35 1.75 9.2.64 17.1.24 26.22-1.44 4.83-.72 8.8-2.08 13.1-4.4l-3.37 25.07c-8.58-2.8-15.64-5.6-23.7-9.54-.37-.16-.68-.32-.98-.48-.46-.32-.3-.16-.54-.64-.38-.96-.46-1.6-1.3-2.4-.77-.56-1.6-.8-2.53-.72-2 .08-3.53 1.84-3.38 3.84.16 1.93 1.92 3.45 3.9 3.3.55-.1 1-.25 1.62-.5.6-.15.6-.15 1.22.17 8.2 4 15.33 6.97 24 9.85 1.22.4 1.22 0 1.22 1.04-.07.8-.15 1.53-.3 2.33l-1 7.6zm-24.7-37.9c0 .48-.6.4-.75.16-.23-.32.76-.72.76-.16zm31.52 11.22l.46-3.53c1.6.97 4.3 2.33 5.06 4.1-1.6.63-4.06-.17-5.52-.57z" stroke="#fff" stroke-opacity="0" stroke-width="2" fill="#fff"/><use xlink:href="#g" transform="matrix(1,0,0,1,870,-1631) translate(44.55 14.4)"/><path d="M186.34-1881.46l-12.4-3.46-11.72-13.33 13.08 1.08 11.04 15.7z" fill="#b8852e"/><path d="M186.35-1881.46l8.86-18.54-8.27-1.16-11.64 4 11.05 15.7z" fill="#d9a741"/><path d="M157.68-1890.24l-6.97-1.96-7.66-8.74 8.15 1.28 6.48 9.42z" fill="#b8852e"/><path d="M157.67-1890.24l5-10.44-4.66-.66-6.82 1.67 6.5 9.43z" fill="#d9a741"/><path d="M140-1900.68l7.14 1.47 34.86-30.3-34.86-33.87-7.14 3.6v59.1z" fill="#876929"/><path d="M174.64-1957.4v55.63l-27.52 2.56v-64.17l27.52 5.97z" fill="#d9a741"/><path d="M155.9-1897.32l12.23 2.46 33.7-39-33.7-40.1-12.22 6.16v70.48z" fill="#876929"/><path d="M237.85-1951.9v48.1l-69.72 8.94v-79.1l69.72 22.06z" fill="#d9a741"/><path d="M225.22-1870l-17.6-4.93-16.66-18.96 18.57 1.56 15.7 22.33z" fill="#b8852e"/><path d="M225.22-1870l12.62-26.34-11.8-1.68-16.5 5.7 15.68 22.3z" fill="#d9a741"/><path d="M182-1892.23l17.95 3.44 24.37-50.6-24.37-50.6-17.95 9.1v88.67z" fill="#876929"/><path d="M199.96-1888.8l60.03-11.93v-59.3L199.95-1990v101.2z" fill="#d9a741"/><use xlink:href="#h" transform="matrix(1,0,0,1,140,-1870) translate(19.049999999999997 14.4)"/><use xlink:href="#i" transform="matrix(1,0,0,1,140,-1870) translate(7.549999999999997 36)"/><use xlink:href="#j" transform="matrix(1,0,0,1,140,-1870) translate(66.45 36)"/><path d="M400-1956.68v56.28l49.5 24.84 49.5-24.84v-14.04l-42.07-5.28v-31.68l42.07-5.28v-14.04l-49.5-24.84-49.5 24.84v14.04z" fill="#876929"/><path d="M400.02-1914.48l49.47 14.9v24l-49.48-24.8v-14.1z" fill="#876929"/><path d="M406.3-1897.24l-6.3-3.15v-70.35l6.33-3.14-.02 76.66z" fill="#876929"/><path d="M456.92-1919.7l-50.6 7.12v-45.98l50.6 7.17v31.7zM499-1956.64l-49.5-14.95v-23.96l49.5 24.87v14.06zM498.97-1914.46l-49.47 14.9v24l49.47-24.86v-14.04z" fill="#d9a741"/><path d="M431.26-1922.7l18.23 2.28v-30.43l-18.24 2.32v25.83zM412.9-1924.97l11.83 1.47v-24.18l-11.83 1.5v21.2z" fill="#876929"/><path d="M406.33-1958.57l43.18-13 49.5 14.92-42.08 5.24-50.6-7.17z" fill="#624a1e"/><path d="M406.3-1912.58l43.18 13.02 49.48-14.9-42.06-5.26-50.6 7.14z" fill="#fad791"/><path d="M498.97-1926.68l-49.47 6.26v-30.43l49.47 6.33v17.84z" fill="#d9a741"/><use xlink:href="#h" transform="matrix(1,0,0,1,400,-1875.5595312208345) translate(8.549999999999997 14.4)"/><use xlink:href="#k" transform="matrix(1,0,0,1,400,-1875.5595312208345) translate(29 36)"/><use xlink:href="#l" transform="matrix(1,0,0,1,400,-1875.5595312208345) translate(22.5 57.6)"/><path d="M499.97-1931.6H620.5" stroke="#000" stroke-width="2" fill="none"/><path d="M500-1930.6h-1.03v-2H500z" stroke="#000" stroke-width=".05"/><path d="M635.76-1931.6l-14.26 4.65v-9.27z" stroke="#000" stroke-width="2"/><path d="M261-1925.56h120.5" stroke="#000" stroke-width="2" fill="none"/><path d="M261-1924.56h-1v-2h1z" stroke="#000" stroke-width=".05"/><path d="M396.76-1925.56l-14.26 4.64v-9.27z" stroke="#000" stroke-width="2"/><path d="M760-1931.6h200v153.1" stroke="#000" stroke-width="2" fill="none"/><path d="M760.03-1930.6H759v-2h1.03z" stroke="#000" stroke-width=".05"/><path d="M960-1763.24l-4.64-14.26h9.28z" stroke="#000" stroke-width="2"/><path d="M1186.34-1893.05l-12.4-3.45-11.72-13.33 13.08 1.07 11.04 15.7z" fill="#b8852e"/><path d="M1186.35-1893.05l8.86-18.54-8.27-1.15-11.64 4 11.05 15.7z" fill="#d9a741"/><path d="M1157.68-1901.83l-6.97-1.96-7.66-8.72 8.15 1.27 6.48 9.42z" fill="#b8852e"/><path d="M1157.67-1901.83l5-10.43-4.66-.67-6.82 1.68 6.5 9.42z" fill="#d9a741"/><path d="M1140-1912.27l7.14 1.48 34.86-30.28-34.86-33.88-7.14 3.6v59.1z" fill="#876929"/><path d="M1174.64-1969v55.64l-27.52 2.57v-64.16l27.52 5.97z" fill="#d9a741"/><path d="M1155.9-1908.9l12.23 2.45 33.7-39-33.7-40.1-12.22 6.17v70.48z" fill="#876929"/><path d="M1237.85-1963.48v48.1l-69.72 8.93v-79.1l69.72 22.07z" fill="#d9a741"/><path d="M1225.22-1881.6l-17.6-4.92-16.66-18.96 18.57 1.55 15.7 22.33z" fill="#b8852e"/><path d="M1225.22-1881.6l12.62-26.33-11.8-1.68-16.5 5.68 15.68 22.32z" fill="#d9a741"/><path d="M1182-1903.82l17.95 3.44 24.37-50.6-24.37-50.6-17.95 9.1v88.66z" fill="#876929"/><path d="M1199.96-1900.38l60.03-11.94v-59.3l-60.04-29.97v101.22z" fill="#d9a741"/><g><use xlink:href="#c" transform="matrix(1,0,0,1,1140,-1881.5860131485454) translate(5.75 14.4)"/><use xlink:href="#k" transform="matrix(1,0,0,1,1140,-1881.5860131485454) translate(73.25 14.4)"/><use xlink:href="#m" transform="matrix(1,0,0,1,1140,-1881.5860131485454) translate(32.5 36)"/></g><path d="M760-1931.6h361.5" stroke="#000" stroke-width="2" fill="none"/><path d="M760.03-1930.6H759v-2h1.03z" stroke="#000" stroke-width=".05"/><path d="M1136.76-1931.6l-14.26 4.65v-9.27z" stroke="#000" stroke-width="2"/><path d="M261-1700h110" stroke="#000" stroke-width="2" fill="none"/><path d="M261.03-1699H260v-2h1.03z" stroke="#000" stroke-width=".05"/><path d="M386.26-1700l-14.26 4.64v-9.28z" stroke="#000" stroke-width="2"/><defs><path d="M137 0h-34L2-248h35l83 218 83-218h36" id="n"/><path d="M24-231v-30h32v30H24zM24 0v-190h32V0H24" id="o"/><path d="M114-163C36-179 61-72 57 0H25l-1-190h30c1 12-1 29 2 39 6-27 23-49 58-41v29" id="p"/><path d="M84 4C-5 8 30-112 23-190h32v120c0 31 7 50 39 49 72-2 45-101 50-169h31l1 190h-30c-1-10 1-25-2-33-11 22-28 36-60 37" id="q"/><path d="M135-143c-3-34-86-38-87 0 15 53 115 12 119 90S17 21 10-45l28-5c4 36 97 45 98 0-10-56-113-15-118-90-4-57 82-63 122-42 12 7 21 19 24 35" id="r"/><g id="a"><use transform="matrix(0.05,0,0,0.05,0,0)" xlink:href="#n"/><use transform="matrix(0.05,0,0,0.05,11.65,0)" xlink:href="#o"/><use transform="matrix(0.05,0,0,0.05,15.600000000000001,0)" xlink:href="#p"/><use transform="matrix(0.05,0,0,0.05,21.55,0)" xlink:href="#q"/><use transform="matrix(0.05,0,0,0.05,31.55,0)" xlink:href="#r"/></g><path d="M30-248c118-7 216 8 213 122C240-48 200 0 122 0H30v-248zM63-27c89 8 146-16 146-99s-60-101-146-95v194" id="s"/><path d="M100-194c63 0 86 42 84 106H49c0 40 14 67 53 68 26 1 43-12 49-29l28 8c-11 28-37 45-77 45C44 4 14-33 15-96c1-61 26-98 85-98zm52 81c6-60-76-77-97-28-3 7-6 17-6 28h103" id="t"/><path d="M101-234c-31-9-42 10-38 44h38v23H63V0H32v-167H5v-23h27c-7-52 17-82 69-68v24" id="u"/><path d="M117-194c89-4 53 116 60 194h-32v-121c0-31-8-49-39-48C34-167 62-67 57 0H25l-1-190h30c1 10-1 24 2 32 11-22 29-35 61-36" id="v"/><path d="M59-47c-2 24 18 29 38 22v24C64 9 27 4 27-40v-127H5v-23h24l9-43h21v43h35v23H59v120" id="w"/><path d="M100-194c62-1 85 37 85 99 1 63-27 99-86 99S16-35 15-95c0-66 28-99 85-99zM99-20c44 1 53-31 53-75 0-43-8-75-51-75s-53 32-53 75 10 74 51 75" id="x"/><g id="b"><use transform="matrix(0.05,0,0,0.05,0,0)" xlink:href="#s"/><use transform="matrix(0.05,0,0,0.05,12.950000000000001,0)" xlink:href="#t"/><use transform="matrix(0.05,0,0,0.05,22.950000000000003,0)" xlink:href="#u"/><use transform="matrix(0.05,0,0,0.05,27.950000000000003,0)" xlink:href="#o"/><use transform="matrix(0.05,0,0,0.05,31.900000000000002,0)" xlink:href="#v"/><use transform="matrix(0.05,0,0,0.05,41.900000000000006,0)" xlink:href="#o"/><use transform="matrix(0.05,0,0,0.05,45.85000000000001,0)" xlink:href="#w"/><use transform="matrix(0.05,0,0,0.05,50.85000000000001,0)" xlink:href="#o"/><use transform="matrix(0.05,0,0,0.05,54.80000000000001,0)" xlink:href="#x"/><use transform="matrix(0.05,0,0,0.05,64.80000000000001,0)" xlink:href="#v"/><use transform="matrix(0.05,0,0,0.05,74.80000000000001,0)" xlink:href="#r"/></g><path d="M212-179c-10-28-35-45-73-45-59 0-87 40-87 99 0 60 29 101 89 101 43 0 62-24 78-52l27 14C228-24 195 4 139 4 59 4 22-46 18-125c-6-104 99-153 187-111 19 9 31 26 39 46" id="y"/><path d="M24 0v-261h32V0H24" id="z"/><path d="M141-36C126-15 110 5 73 4 37 3 15-17 15-53c-1-64 63-63 125-63 3-35-9-54-41-54-24 1-41 7-42 31l-33-3c5-37 33-52 76-52 45 0 72 20 72 64v82c-1 20 7 32 28 27v20c-31 9-61-2-59-35zM48-53c0 20 12 33 32 33 41-3 63-29 60-74-43 2-92-5-92 41" id="A"/><path d="M210-169c-67 3-38 105-44 169h-31v-121c0-29-5-50-35-48C34-165 62-65 56 0H25l-1-190h30c1 10-1 24 2 32 10-44 99-50 107 0 11-21 27-35 58-36 85-2 47 119 55 194h-31v-121c0-29-5-49-35-48" id="B"/><path d="M205 0l-28-72H64L36 0H1l101-248h38L239 0h-34zm-38-99l-47-123c-12 45-31 82-46 123h93" id="C"/><path d="M108 0H70L1-190h34L89-25l56-165h34" id="D"/><g id="c"><use transform="matrix(0.05,0,0,0.05,0,0)" xlink:href="#y"/><use transform="matrix(0.05,0,0,0.05,12.950000000000001,0)" xlink:href="#z"/><use transform="matrix(0.05,0,0,0.05,16.900000000000002,0)" xlink:href="#A"/><use transform="matrix(0.05,0,0,0.05,26.900000000000002,0)" xlink:href="#B"/><use transform="matrix(0.05,0,0,0.05,41.85,0)" xlink:href="#C"/><use transform="matrix(0.05,0,0,0.05,53.5,0)" xlink:href="#D"/></g><path d="M185-189c-5-48-123-54-124 2 14 75 158 14 163 119 3 78-121 87-175 55-17-10-28-26-33-46l33-7c5 56 141 63 141-1 0-78-155-14-162-118-5-82 145-84 179-34 5 7 8 16 11 25" id="E"/><path d="M96-169c-40 0-48 33-48 73s9 75 48 75c24 0 41-14 43-38l32 2c-6 37-31 61-74 61-59 0-76-41-82-99-10-93 101-131 147-64 4 7 5 14 7 22l-32 3c-4-21-16-35-41-35" id="F"/><g id="d"><use transform="matrix(0.05,0,0,0.05,0,0)" xlink:href="#E"/><use transform="matrix(0.05,0,0,0.05,12,0)" xlink:href="#F"/><use transform="matrix(0.05,0,0,0.05,21,0)" xlink:href="#A"/><use transform="matrix(0.05,0,0,0.05,31,0)" xlink:href="#v"/><use transform="matrix(0.05,0,0,0.05,41,0)" xlink:href="#v"/><use transform="matrix(0.05,0,0,0.05,51,0)" xlink:href="#t"/><use transform="matrix(0.05,0,0,0.05,61,0)" xlink:href="#p"/></g><g id="e"><use transform="matrix(0.05,0,0,0.05,0,0)" xlink:href="#s"/><use transform="matrix(0.05,0,0,0.05,12.950000000000001,0)" xlink:href="#t"/><use transform="matrix(0.05,0,0,0.05,22.950000000000003,0)" xlink:href="#u"/><use transform="matrix(0.05,0,0,0.05,27.950000000000003,0)" xlink:href="#o"/><use transform="matrix(0.05,0,0,0.05,31.900000000000002,0)" xlink:href="#v"/><use transform="matrix(0.05,0,0,0.05,41.900000000000006,0)" xlink:href="#o"/><use transform="matrix(0.05,0,0,0.05,45.85000000000001,0)" xlink:href="#w"/><use transform="matrix(0.05,0,0,0.05,50.85000000000001,0)" xlink:href="#o"/><use transform="matrix(0.05,0,0,0.05,54.80000000000001,0)" xlink:href="#x"/><use transform="matrix(0.05,0,0,0.05,64.80000000000001,0)" xlink:href="#v"/><use transform="matrix(0.05,0,0,0.05,74.80000000000001,0)" xlink:href="#r"/></g><path d="M232-93c-1 65-40 97-104 97C67 4 28-28 28-90v-158h33c8 89-33 224 67 224 102 0 64-133 71-224h33v155" id="G"/><path d="M115-194c55 1 70 41 70 98S169 2 115 4C84 4 66-9 55-30l1 105H24l-1-265h31l2 30c10-21 28-34 59-34zm-8 174c40 0 45-34 45-75s-6-73-45-74c-42 0-51 32-51 76 0 43 10 73 51 73" id="H"/><path d="M85-194c31 0 48 13 60 33l-1-100h32l1 261h-30c-2-10 0-23-3-31C134-8 116 4 85 4 32 4 16-35 15-94c0-66 23-100 70-100zm9 24c-40 0-46 34-46 75 0 40 6 74 45 74 42 0 51-32 51-76 0-42-9-74-50-73" id="I"/><g id="f"><use transform="matrix(0.05,0,0,0.05,0,0)" xlink:href="#G"/><use transform="matrix(0.05,0,0,0.05,12.950000000000001,0)" xlink:href="#H"/><use transform="matrix(0.05,0,0,0.05,22.950000000000003,0)" xlink:href="#I"/><use transform="matrix(0.05,0,0,0.05,32.95,0)" xlink:href="#A"/><use transform="matrix(0.05,0,0,0.05,42.95,0)" xlink:href="#w"/><use transform="matrix(0.05,0,0,0.05,47.95,0)" xlink:href="#t"/><use transform="matrix(0.05,0,0,0.05,57.95,0)" xlink:href="#p"/></g><g id="g"><use transform="matrix(0.05,0,0,0.05,0,0)" xlink:href="#s"/><use transform="matrix(0.05,0,0,0.05,12.950000000000001,0)" xlink:href="#x"/><use transform="matrix(0.05,0,0,0.05,22.950000000000003,0)" xlink:href="#F"/><use transform="matrix(0.05,0,0,0.05,31.950000000000003,0)" xlink:href="#q"/><use transform="matrix(0.05,0,0,0.05,41.95,0)" xlink:href="#B"/><use transform="matrix(0.05,0,0,0.05,56.900000000000006,0)" xlink:href="#t"/><use transform="matrix(0.05,0,0,0.05,66.9,0)" xlink:href="#v"/><use transform="matrix(0.05,0,0,0.05,76.9,0)" xlink:href="#w"/><use transform="matrix(0.05,0,0,0.05,81.9,0)" xlink:href="#r"/></g><g id="h"><use transform="matrix(0.05,0,0,0.05,0,0)" xlink:href="#s"/><use transform="matrix(0.05,0,0,0.05,12.950000000000001,0)" xlink:href="#x"/><use transform="matrix(0.05,0,0,0.05,22.950000000000003,0)" xlink:href="#F"/><use transform="matrix(0.05,0,0,0.05,31.950000000000003,0)" xlink:href="#q"/><use transform="matrix(0.05,0,0,0.05,41.95,0)" xlink:href="#B"/><use transform="matrix(0.05,0,0,0.05,56.900000000000006,0)" xlink:href="#t"/><use transform="matrix(0.05,0,0,0.05,66.9,0)" xlink:href="#v"/><use transform="matrix(0.05,0,0,0.05,76.9,0)" xlink:href="#w"/></g><g id="i"><use transform="matrix(0.05,0,0,0.05,0,0)" xlink:href="#y"/><use transform="matrix(0.05,0,0,0.05,12.950000000000001,0)" xlink:href="#p"/><use transform="matrix(0.05,0,0,0.05,18.900000000000002,0)" xlink:href="#t"/><use transform="matrix(0.05,0,0,0.05,28.900000000000002,0)" xlink:href="#A"/><use transform="matrix(0.05,0,0,0.05,38.900000000000006,0)" xlink:href="#w"/><use transform="matrix(0.05,0,0,0.05,43.900000000000006,0)" xlink:href="#t"/></g><path d="M30 0v-248h187v28H63v79h144v27H63v87h162V0H30" id="J"/><g id="j"><use transform="matrix(0.05,0,0,0.05,0,0)" xlink:href="#J"/><use transform="matrix(0.05,0,0,0.05,12,0)" xlink:href="#D"/><use transform="matrix(0.05,0,0,0.05,21,0)" xlink:href="#t"/><use transform="matrix(0.05,0,0,0.05,31,0)" xlink:href="#v"/><use transform="matrix(0.05,0,0,0.05,41,0)" xlink:href="#w"/></g><g id="k"><use transform="matrix(0.05,0,0,0.05,0,0)" xlink:href="#E"/><use transform="matrix(0.05,0,0,0.05,12,0)" xlink:href="#F"/><use transform="matrix(0.05,0,0,0.05,21,0)" xlink:href="#A"/><use transform="matrix(0.05,0,0,0.05,31,0)" xlink:href="#v"/></g><path d="M140-251c81 0 123 46 123 126C263-53 228-8 163 1c7 30 30 48 69 40v23c-55 16-95-15-103-61C56-3 17-48 17-125c0-80 42-126 123-126zm0 227c63 0 89-41 89-101s-29-99-89-99c-61 0-89 39-89 99S79-25 140-24" id="K"/><g id="l"><use transform="matrix(0.05,0,0,0.05,0,0)" xlink:href="#K"/><use transform="matrix(0.05,0,0,0.05,14,0)" xlink:href="#q"/><use transform="matrix(0.05,0,0,0.05,24,0)" xlink:href="#t"/><use transform="matrix(0.05,0,0,0.05,34,0)" xlink:href="#q"/><use transform="matrix(0.05,0,0,0.05,44,0)" xlink:href="#t"/></g><g id="m"><use transform="matrix(0.05,0,0,0.05,0,0)" xlink:href="#J"/><use transform="matrix(0.05,0,0,0.05,12,0)" xlink:href="#D"/><use transform="matrix(0.05,0,0,0.05,21,0)" xlink:href="#t"/><use transform="matrix(0.05,0,0,0.05,31,0)" xlink:href="#v"/><use transform="matrix(0.05,0,0,0.05,41,0)" xlink:href="#w"/><use transform="matrix(0.05,0,0,0.05,46,0)" xlink:href="#r"/></g></defs></g></svg>