<svg xmlns="http://www.w3.org/2000/svg" xmlns:xlink="http://www.w3.org/1999/xlink" xmlns:lucid="lucid" width="1220" height="620"><g transform="translate(-260 2520)" lucid:page-tab-id="gnaiy_f44_qu"><path d="M0-2592h1760v1360H0z" fill="#fff"/><path d="M280-2438a30 30 0 0 1 30-30h380a30 30 0 0 1 30 30v488a30 30 0 0 1-30 30H310a30 30 0 0 1-30-30z" stroke="#474747" fill-opacity="0"/><path d="M388-2465.6v3.54c0 6.42-7.1 13.05-15.76 13.05h-46.48c-8.66 0-15.75-6.64-15.75-13.06v-3.54z" fill="#9d5125"/><path d="M340.03-2500c8.03 0 14.82 4.4 18.17 11.67 4.6-3.14 10.92-1.98 14.04 2.65 1.17 1.64 1.7 3.32 1.8 5.3 7.87.68 13.95 8.25 13.95 14.27v1.3c0 6.45-7.1 13-15.76 13h-46.5c-8.64 0-15.74-6.55-15.74-13v-1.3c0-5.02 4.2-11.87 10.06-13.56v-.57c.08-10.95 8.97-19.82 19.97-19.77z" fill="#f58535"/><path d="M329.54-2476.87l-5.2 18.2h3.04l1.17-4.43h5.38l1.1 4.43h3.05l-4.8-18.2zm-.47 11.4l2.22-8.98 2.1 8.97zM351.2-2462.66h-.03l-2.47-14.2h-3.1l-2.4 14.13h-.06l-2.4-14.14h-2.95l3.53 18.2h3.38l2.35-13.7h.06l2.36 13.7h3.4l3.64-18.2h-2.9l-2.4 14.2zM365.9-2468.6l-1.98-.72c-1.93-.7-2.74-1.53-2.74-3.1-.17-1.26.74-2.43 2-2.6.16-.02.3-.02.45-.02 1.26-.17 2.4.72 2.58 1.96.04.25.03.44 0 .68v.38h2.93v-.4c0-1.9-.5-4.8-5.18-4.8-3.44 0-5.7 1.84-5.7 5.16 0 2.6 1.1 3.97 3.82 5l2 .68c1.6.23 2.73 1.6 2.64 3.2.04 1.45-1.08 2.64-2.5 2.68h-.28c-2 0-3-1.12-3-3.33v-.47h-2.9v.44c0 2.54 1.02 5.53 5.52 5.53 3.7 0 6.07-1.6 6.07-5.48.04-2.5-1.1-3.9-3.7-4.8z" fill="#fff"/><use xlink:href="#a" transform="matrix(1,0,0,1,280,-1950) translate(175.875 12.799999999999999)"/><use xlink:href="#b" transform="matrix(1,0,0,1,280,-1950) translate(221.175 12.799999999999999)"/><path d="M1040-2438a30 30 0 0 1 30-30h360a30 30 0 0 1 30 30v488a30 30 0 0 1-30 30h-360a30 30 0 0 1-30-30z" stroke="#474747" fill-opacity="0"/><path d="M1094.96-2497.62c1.6 0 2.84 1.3 2.84 2.9l11.2 43.2v2.62c0 1.6-1.3 2.9-2.85 2.9h-33.3c-1.56 0-2.85-1.3-2.85-2.9v-2.37l12.56-43.46c0-1.6 1.24-2.9 2.84-2.9z" fill="#4f4f4f"/><path d="M1106.15-2500c1.56 0 2.85 1.3 2.85 2.9v45.8c0 1.6-1.3 2.9-2.85 2.9h-33.3c-1.56 0-2.85-1.3-2.85-2.9v-45.8c0-1.6 1.3-2.9 2.85-2.9z" fill="#7d7c7c"/><path d="M1096.27-2493.47h7.9v3.2h-7.9zm-10.8 0h7.9v3.2h-7.9zm-10.82 0h7.9v3.2h-7.9zm0 5.53h7.9v3.2h-7.9zm.06 5.52h7.88v3.2h-7.87zm7.9 5.52v3.2h-7.9v-3.2zm-7.9 5.53h7.9v3.17h-7.9zm7.97 8.73h-7.9v-3.2h7.9zm2.8-25.3h7.9v3.2h-7.9zm.05 5.52h7.87v3.2h-7.88zm7.9 5.52v3.2h-7.9v-3.2zm-7.9 5.56h7.9v3.14h-7.9zm7.96 8.73h-7.9v-3.25h7.9zm2.85-25.3h7.9v3.2h-7.9zm.06 5.5h7.87v3.22h-7.88zm7.9 5.53v3.2h-7.9v-3.23zm-7.9 5.53h7.9v3.14h-7.9zm7.96 8.73h-7.97v-3.25h7.9z" fill="#fff"/><path d="M1244.34-2212.84h-32.72v-4.92h33.02v-9.96h-33.02v-5.04h32.43l-11.03-11.64 17.13-18h9.1v-4.92h-11.8c-2.8 0-5.24-1.44-6.4-3.24-1.45-2.28-1.16-5.04.3-7.44l17.7-32.4c-.76-2.52-3.28-4.44-6.1-4.44h-46.27c-3.58 0-6.58 3.12-6.58 6.6V-2200h58.96v-12.96H1244.34v.12zm-32.72-87.12h36.02v5.04h-36.02v-5.04z" stroke="#000" stroke-opacity="0" fill="#00188f"/><path d="M1252.38-2257l-12.78 12.96 12.78 12.96h7.94l-9.68-9.72h29.92v-6.6h-29.92l9.68-9.72-7.94.12zM1278.33-2224.36h-28.96v6.6h28.95l-9.68 9.72h8.32l12.5-12.96-12.5-12.96h-8.32l9.68 9.6zM1272.8-2318.56c-1.05-1.92-2.7-1.92-3.86 0l-23.53 43.2c-1.15 1.92-.28 3.24 1.95 3.24h47.05c2.23 0 3.1-1.32 1.94-3.24l-23.53-43.2zm-1.93 11.4c2.52 0 4.75 2.16 4.75 4.68 0 2.4-2.23 4.68-4.75 4.68-2.42 0-4.74-2.28-4.74-4.68 0-2.76 2.32-4.68 4.74-4.68zm9.7 19.92c-1.08.24-1.95.48-2.43 1.08l-5.8-10.68c.76-.36 1.63-.6 2.2-1.44l6.02 11.04zm-13.76-10.8c.5.6 1.36 1.2 2.23 1.44l-5.8 10.8c-.6-.6-1.46-1.2-2.52-1.2l6.1-11.04zm-6.96 21.36c-2.52 0-4.75-2.28-4.75-4.8 0-2.4 2.22-4.68 4.74-4.68 2.42 0 4.64 2.28 4.64 4.68-.3 2.88-2.22 4.8-4.64 4.8zm16.07-3.36h-10.25c.3-.6.3-.84.3-1.44s0-.84-.3-1.44h10.26c-.28.48-.28.84-.28 1.44s0 1.2.3 1.44zm5.82 3.36c-2.42 0-4.75-2.28-4.75-4.8 0-2.4 2.33-4.68 4.75-4.68s4.74 2.28 4.74 4.68c-.3 2.88-2.32 4.8-4.74 4.8z" stroke="#000" stroke-opacity="0" fill="#00188f"/><use xlink:href="#c" transform="matrix(1,0,0,1,1170,-2191) translate(15.624999999999993 14.4)"/><use xlink:href="#d" transform="matrix(1,0,0,1,1170,-2191) translate(69.57499999999999 14.4)"/><path d="M820-2320h120v120H820v-120z" stroke="#fff" stroke-opacity="0" stroke-width="2" fill="#d6242d"/><path d="M867.2-2247.66H855.8c-8.4 0-15.28-6.1-15.76-13.85v-1.07c-.24-6.6 4-12.34 10.4-14.05v-1.16c.24-8.26 4.96-15.16 12.56-18.43 8.23-3.53 17.2-1.82 23.6 4.42 2.07 2.07 3.6 4.08 4.8 6.75 1.75-1.36 3.67-2 5.9-2 4.5 0 9.2 3.1 10.08 10 8.16 1.97 12.64 7.1 12.64 14.6 0 8.02-4.4 13.3-12 14.56l-.48-3.17c4.24-.7 9.28-3.22 9.28-11.38 0-6.3-3.76-10.22-11.2-11.68-.72-.1-1.28-.7-1.28-1.46-.4-6.1-4-8.26-7.03-8.26-2.1 0-3.93.9-5.2 2.57-.33.5-.9.7-1.53.6-.56-.05-1.04-.45-1.28-1-1.05-3.08-2.57-5.5-4.97-7.76-5.44-5.35-13.12-6.8-20.23-3.84-6.32 2.82-10.16 8.56-10.48 15.46 0 .76 0 1.36.08 2.12v.15c0 .8-.56 1.5-1.36 1.6-3.44.9-9.2 3.52-9.2 11.33v.8c.4 6.1 5.92 10.88 12.56 10.88h11.5z" stroke="#fff" stroke-opacity="0" stroke-width="2" fill="#fff"/><path d="M918.4-2222.06h-4.72c-.4 0-.8-.15-1.1-.45l-2.82-2.8h-7.35c-.88 0-1.58-.68-1.58-1.57v-4.12l-2.28-2.27h-4.12c-.9 0-1.64-.7-1.64-1.6v-4.35l-.6-.94c-1.83.64-3.52.94-5.5.94-9 0-16.28-7.24-16.28-16.2 0-5.77 2.68-10.67 7.54-13.75.4-.3.84-.54 1.3-.8.44-.24 1.03-.44 1.53-.7.84-.28 1.54-.48 2.43-.68.45-.1.85-.15 1.3-.2H885.67c.35-.05.65-.1 1-.1 8.93 0 16.18 7.24 16.28 16.17.05 2.03-.25 3.72-1 5.6l17.63 17.6c.28.35.43.7.43 1.14v7.54c-.05.84-.74 1.54-1.64 1.54zm-4.03-3.23h2.44v-5.2l-17.86-17.84c-.5-.5-.6-1.14-.35-1.74.83-1.78 1.18-3.42 1.13-5.35 0-7.24-5.86-13.1-13.05-13.1h-1.74c-.35 0-.65.06-1 .15-.7.15-1.28.3-1.98.55-.35.15-.8.35-1.2.55-.44.24-.74.4-1.08.64-5.6 3.52-7.7 10.6-4.87 16.6 3.1 6.56 10.88 9.33 17.4 6.26.73-.35 1.57-.1 2.02.6l1.6 2.52c.2.25.24.5.24.85v3.16h3.22c.45 0 .8.15 1.1.5l3.22 3.17c.3.34.45.7.45 1.14v3.22h6.4c.45 0 .8.14 1.14.44zm-30.42-27.16c-1.64 0-3.03-.6-4.17-1.78-2.3-2.28-2.3-6.05 0-8.33 2.33-2.33 6.05-2.33 8.4 0 1.13 1.14 1.72 2.52 1.72 4.16 0 3.26-2.63 5.9-5.9 5.94zm0-8.43c-.75 0-1.4.26-1.9.8-.54.55-.78 1.2-.78 1.94s.24 1.4.8 1.88c0 .05.04.05.04.1 1.05 1 2.74 1 3.78-.1.55-.5.8-1.14.8-1.88s-.25-1.4-.8-1.93c-.54-.5-1.24-.74-1.98-.7z" stroke="#fff" stroke-opacity="0" stroke-width="2" fill="#fff"/><use xlink:href="#e" transform="matrix(1,0,0,1,790,-2191) translate(39.375 14.4)"/><use xlink:href="#f" transform="matrix(1,0,0,1,790,-2191) translate(92.67500000000001 14.4)"/><path d="M440-2320h120v120H440v-120z" stroke="#fff" stroke-opacity="0" fill="#d6242d"/><path d="M528-2296h-61.64c-3.46.16-6.1 3.12-5.97 6.55v39.7c-.15 3.43 2.5 6.4 5.96 6.55h34.03v-3.22h-34.04c-1.7-.2-2.87-1.7-2.73-3.33v-27.03h28.8v23.97c0 .9.67 1.57 1.55 1.57h12.82v-3.16h-10.46v-.47c0-5.6 3.46-10.3 8.84-11.88 2.58 1.16 5.23 1.16 7.88 0 3.02.9 5.38 2.7 7.07 5.44l2.73-1.6c-1.77-2.8-3.98-4.75-7-6.12 1.4-1.64 2.06-3.43 2.06-5.54 0-4.86-3.97-8.82-8.84-8.82-4.78 0-8.76 3.96-8.76 8.82.07 2.06.73 3.85 2.06 5.44-2.87 1.26-5 3.1-6.7 5.8v-21.5h27.18v22.41h3.17v-14.36h4.78v16h3.25v-28.67-.06c.15-3.5-2.57-6.4-6.04-6.5zm-18.92 15.8c3.1 0 5.6 2.47 5.68 5.53-.08 2.06-1.1 3.8-2.95 4.8-1.76.96-3.67.96-5.37 0-1.84-1-2.87-2.74-2.94-4.8.06-3.06 2.56-5.54 5.58-5.54zm16.95.2v-6.4c0-.9-.74-1.57-1.62-1.57H494c-.88 0-1.54.68-1.54 1.58v6.4h-28.8v-9.45c-.15-1.64 1.03-3.12 2.72-3.33H528c1.64.2 2.9 1.64 2.74 3.33v9.45z" stroke="#fff" stroke-opacity="0" fill="#fff"/><path d="M466.83-2268.88h17.57v3.2h-17.57v-3.2zM466.83-2260.88H478v3.2h-11.17v-3.2zM481.23-2260.88H486v3.2h-4.77v-3.2zM523.4-2223.92c-8.9.03-16.2-7.15-16.23-16.1-.03-8.94 7.16-16.22 16.1-16.25.76 0 1.37.03 2.12.13 8.84 1.1 15.16 9.2 14.06 18.05-.4 3.3-1.6 6-3.73 8.52-1.6 1.8-3.24 3.07-5.42 4.14-2.25 1.03-4.36 1.52-6.9 1.52zm0-29.15c-2.13 0-3.98.45-5.9 1.42-6.18 3.24-8.7 10.68-5.76 17.02 3.02 6.5 10.73 9.32 17.25 6.28 1.74-.84 3.06-1.85 4.3-3.3 1.75-2.04 2.72-4.24 3.04-6.9.85-7.1-4.2-13.55-11.34-14.42-.55-.07-1.04-.1-1.62-.1z" stroke="#fff" stroke-opacity="0" fill="#fff"/><path d="M520.88-2233.28c-.44 0-.82-.16-1.13-.47l-5.17-5.16 2.22-2.27 4.02 4.03 9.13-9.13 2.27 2.27-10.27 10.25c-.3.3-.65.46-1.07.47z" stroke="#fff" stroke-opacity="0" fill="#fff"/><use xlink:href="#g" transform="matrix(1,0,0,1,410,-2191) translate(23.57499999999999 14.4)"/><use xlink:href="#h" transform="matrix(1,0,0,1,410,-2191) translate(94.52499999999999 14.4)"/><path d="M1199.1-2257.24H958.5" stroke="#000" stroke-width="2" fill="none"/><path d="M1200.1-2256.24h-1.03v-2h1.03z" stroke="#000" stroke-width=".05"/><path d="M943.24-2257.24l14.26-4.64v9.28z" stroke="#000" stroke-width="2"/><path d="M561-2260h240.5" stroke="#000" stroke-width="2" fill="none"/><path d="M561.03-2259H560v-2h1.03z" stroke="#000" stroke-width=".05"/><path d="M816.76-2260l-14.26 4.64v-9.28z" stroke="#000" stroke-width="2"/><defs><path d="M205 0l-28-72H64L36 0H1l101-248h38L239 0h-34zm-38-99l-47-123c-12 45-31 82-46 123h93" id="i"/><path d="M266 0h-40l-56-210L115 0H75L2-248h35L96-30l15-64 43-154h32l59 218 59-218h35" id="j"/><path d="M185-189c-5-48-123-54-124 2 14 75 158 14 163 119 3 78-121 87-175 55-17-10-28-26-33-46l33-7c5 56 141 63 141-1 0-78-155-14-162-118-5-82 145-84 179-34 5 7 8 16 11 25" id="k"/><g id="a"><use transform="matrix(0.05,0,0,0.05,0,0)" xlink:href="#i"/><use transform="matrix(0.05,0,0,0.05,11.35,0)" xlink:href="#j"/><use transform="matrix(0.05,0,0,0.05,28.299999999999997,0)" xlink:href="#k"/></g><path d="M96-169c-40 0-48 33-48 73s9 75 48 75c24 0 41-14 43-38l32 2c-6 37-31 61-74 61-59 0-76-41-82-99-10-93 101-131 147-64 4 7 5 14 7 22l-32 3c-4-21-16-35-41-35" id="l"/><path d="M24 0v-261h32V0H24" id="m"/><path d="M100-194c62-1 85 37 85 99 1 63-27 99-86 99S16-35 15-95c0-66 28-99 85-99zM99-20c44 1 53-31 53-75 0-43-8-75-51-75s-53 32-53 75 10 74 51 75" id="n"/><path d="M84 4C-5 8 30-112 23-190h32v120c0 31 7 50 39 49 72-2 45-101 50-169h31l1 190h-30c-1-10 1-25-2-33-11 22-28 36-60 37" id="o"/><path d="M85-194c31 0 48 13 60 33l-1-100h32l1 261h-30c-2-10 0-23-3-31C134-8 116 4 85 4 32 4 16-35 15-94c0-66 23-100 70-100zm9 24c-40 0-46 34-46 75 0 40 6 74 45 74 42 0 51-32 51-76 0-42-9-74-50-73" id="p"/><g id="b"><use transform="matrix(0.05,0,0,0.05,0,0)" xlink:href="#l"/><use transform="matrix(0.05,0,0,0.05,9,0)" xlink:href="#m"/><use transform="matrix(0.05,0,0,0.05,12.949999999999998,0)" xlink:href="#n"/><use transform="matrix(0.05,0,0,0.05,22.95,0)" xlink:href="#o"/><use transform="matrix(0.05,0,0,0.05,32.95,0)" xlink:href="#p"/></g><path d="M59-47c-2 24 18 29 38 22v24C64 9 27 4 27-40v-127H5v-23h24l9-43h21v43h35v23H59v120" id="q"/><path d="M24-231v-30h32v30H24zM24 0v-190h32V0H24" id="r"/><path d="M108 0H70L1-190h34L89-25l56-165h34" id="s"/><path d="M100-194c63 0 86 42 84 106H49c0 40 14 67 53 68 26 1 43-12 49-29l28 8c-11 28-37 45-77 45C44 4 14-33 15-96c1-61 26-98 85-98zm52 81c6-60-76-77-97-28-3 7-6 17-6 28h103" id="t"/><g id="c"><use transform="matrix(0.05,0,0,0.05,0,0)" xlink:href="#i"/><use transform="matrix(0.05,0,0,0.05,12,0)" xlink:href="#l"/><use transform="matrix(0.05,0,0,0.05,21,0)" xlink:href="#q"/><use transform="matrix(0.05,0,0,0.05,26,0)" xlink:href="#r"/><use transform="matrix(0.05,0,0,0.05,29.950000000000003,0)" xlink:href="#s"/><use transform="matrix(0.05,0,0,0.05,38.95,0)" xlink:href="#t"/></g><path d="M30-248c118-7 216 8 213 122C240-48 200 0 122 0H30v-248zM63-27c89 8 146-16 146-99s-60-101-146-95v194" id="u"/><path d="M114-163C36-179 61-72 57 0H25l-1-190h30c1 12-1 29 2 39 6-27 23-49 58-41v29" id="v"/><path d="M179-190L93 31C79 59 56 82 12 73V49c39 6 53-20 64-50L1-190h34L92-34l54-156h33" id="w"/><g id="d"><use transform="matrix(0.05,0,0,0.05,0,0)" xlink:href="#u"/><use transform="matrix(0.05,0,0,0.05,12.950000000000001,0)" xlink:href="#r"/><use transform="matrix(0.05,0,0,0.05,16.900000000000002,0)" xlink:href="#v"/><use transform="matrix(0.05,0,0,0.05,22.85,0)" xlink:href="#t"/><use transform="matrix(0.05,0,0,0.05,32.85,0)" xlink:href="#l"/><use transform="matrix(0.05,0,0,0.05,41.85,0)" xlink:href="#q"/><use transform="matrix(0.05,0,0,0.05,46.85,0)" xlink:href="#n"/><use transform="matrix(0.05,0,0,0.05,56.85,0)" xlink:href="#v"/><use transform="matrix(0.05,0,0,0.05,62.800000000000004,0)" xlink:href="#w"/></g><path d="M240 0l2-218c-23 76-54 145-80 218h-23L58-218 59 0H30v-248h44l77 211c21-75 51-140 76-211h43V0h-30" id="x"/><path d="M30 0v-248h33v221h125V0H30" id="y"/><g id="e"><use transform="matrix(0.05,0,0,0.05,0,0)" xlink:href="#k"/><use transform="matrix(0.05,0,0,0.05,12,0)" xlink:href="#i"/><use transform="matrix(0.05,0,0,0.05,24,0)" xlink:href="#x"/><use transform="matrix(0.05,0,0,0.05,38.95,0)" xlink:href="#y"/></g><path d="M127-220V0H93v-220H8v-28h204v28h-85" id="z"/><path d="M143 0L79-87 56-68V0H24v-261h32v163l83-92h37l-77 82L181 0h-38" id="A"/><path d="M117-194c89-4 53 116 60 194h-32v-121c0-31-8-49-39-48C34-167 62-67 57 0H25l-1-190h30c1 10-1 24 2 32 11-22 29-35 61-36" id="B"/><g id="f"><use transform="matrix(0.05,0,0,0.05,0,0)" xlink:href="#z"/><use transform="matrix(0.05,0,0,0.05,8.950000000000001,0)" xlink:href="#n"/><use transform="matrix(0.05,0,0,0.05,18.950000000000003,0)" xlink:href="#A"/><use transform="matrix(0.05,0,0,0.05,27.950000000000003,0)" xlink:href="#t"/><use transform="matrix(0.05,0,0,0.05,37.95,0)" xlink:href="#B"/></g><path d="M210-169c-67 3-38 105-44 169h-31v-121c0-29-5-50-35-48C34-165 62-65 56 0H25l-1-190h30c1 10-1 24 2 32 10-44 99-50 107 0 11-21 27-35 58-36 85-2 47 119 55 194h-31v-121c0-29-5-49-35-48" id="C"/><path d="M141-36C126-15 110 5 73 4 37 3 15-17 15-53c-1-64 63-63 125-63 3-35-9-54-41-54-24 1-41 7-42 31l-33-3c5-37 33-52 76-52 45 0 72 20 72 64v82c-1 20 7 32 28 27v20c-31 9-61-2-59-35zM48-53c0 20 12 33 32 33 41-3 63-29 60-74-43 2-92-5-92 41" id="D"/><path d="M9 0v-24l116-142H16v-24h144v24L44-24h123V0H9" id="E"/><g id="g"><use transform="matrix(0.05,0,0,0.05,0,0)" xlink:href="#i"/><use transform="matrix(0.05,0,0,0.05,12,0)" xlink:href="#C"/><use transform="matrix(0.05,0,0,0.05,26.950000000000003,0)" xlink:href="#D"/><use transform="matrix(0.05,0,0,0.05,36.95,0)" xlink:href="#E"/><use transform="matrix(0.05,0,0,0.05,45.95,0)" xlink:href="#n"/><use transform="matrix(0.05,0,0,0.05,55.95,0)" xlink:href="#B"/></g><path d="M212-179c-10-28-35-45-73-45-59 0-87 40-87 99 0 60 29 101 89 101 43 0 62-24 78-52l27 14C228-24 195 4 139 4 59 4 22-46 18-125c-6-104 99-153 187-111 19 9 31 26 39 46" id="F"/><path d="M177-190C167-65 218 103 67 71c-23-6-38-20-44-43l32-5c15 47 100 32 89-28v-30C133-14 115 1 83 1 29 1 15-40 15-95c0-56 16-97 71-98 29-1 48 16 59 35 1-10 0-23 2-32h30zM94-22c36 0 50-32 50-73 0-42-14-75-50-75-39 0-46 34-46 75s6 73 46 73" id="G"/><g id="h"><use transform="matrix(0.05,0,0,0.05,0,0)" xlink:href="#F"/><use transform="matrix(0.05,0,0,0.05,12.950000000000001,0)" xlink:href="#n"/><use transform="matrix(0.05,0,0,0.05,22.950000000000003,0)" xlink:href="#G"/><use transform="matrix(0.05,0,0,0.05,32.95,0)" xlink:href="#B"/><use transform="matrix(0.05,0,0,0.05,42.95,0)" xlink:href="#r"/><use transform="matrix(0.05,0,0,0.05,46.900000000000006,0)" xlink:href="#q"/><use transform="matrix(0.05,0,0,0.05,51.900000000000006,0)" xlink:href="#n"/></g></defs></g></svg>